<?xml version="1.0" standalone="no"?>
<!DOCTYPE svg PUBLIC "-//W3C//DTD SVG 1.1//EN" "http://www.w3.org/Graphics/SVG/1.1/DTD/svg11.dtd" >
<svg>
<metadata>
Created by FontForge 20090914 at Thu Apr 28 20:23:56 2011
 By www-data
&#194;&#169; 2006 Microsoft Corporation. All Rights Reserved.
</metadata>
<defs>
<font id="Calibri" horiz-adv-x="1038" >
  <font-face 
    font-family="Calibri"
    font-weight="400"
    font-stretch="normal"
    units-per-em="2048"
    panose-1="2 15 5 2 2 2 4 3 2 4"
    ascent="1536"
    descent="-512"
    x-height="19"
    cap-height="6"
    bbox="-43.5191 -1524.07 1760 365.022"
    underline-thickness="134"
    underline-position="-165"
    unicode-range="U+0020-U+007E"
  />
    <missing-glyph />
    <glyph glyph-name="space" unicode=" " horiz-adv-x="463" 
 />
    <glyph glyph-name="space" unicode="&#xa0;" horiz-adv-x="463" 
 />
    <glyph glyph-name="A" unicode="A" horiz-adv-x="1185" 
d="M188 -2c-43 9 -150 27 -152 -24c0 -9 3 -21 8 -36l434 -1202c18 -55 135 -38 198 -29c17 2 25 15 31 30l434 1202c14 33 13 65 -25 65c-49 0 -135 14 -150 -29l-111 -315h-538l-106 311c-4 13 -11 21 -23 27zM810 -477l-227 -645l-223 645h450z" />
    <glyph glyph-name="B" unicode="B" horiz-adv-x="1114" 
d="M771 -692c183 31 301 218 239 434c-51 176 -206 258 -436 258h-338c-36 -2 -64 -24 -64 -70v-1154c-2 -46 27 -70 64 -70h294c255 -1 413 88 413 327c0 143 -70 230 -172 275zM538 -735c150 0 228 -75 228 -215c0 -149 -88 -204 -246 -204h-178v419h196zM592 -142
c153 -2 252 -70 252 -219c0 -174 -113 -238 -296 -237h-206v456h250z" />
    <glyph glyph-name="C" unicode="C" horiz-adv-x="1092" 
d="M1010 -259c40 0 25 83 22 125c-13 35 -27 39 -63 64c-123 85 -384 117 -551 44c-211 -92 -321 -299 -321 -604c0 -317 120 -534 337 -634c189 -87 485 -42 585 83c16 36 26 137 -19 146c-35 -8 -67 -40 -104 -63c-89 -55 -272 -89 -388 -28c-151 80 -225 253 -225 486
c0 292 104 498 387 504c133 3 224 -52 299 -104c17 -13 31 -19 41 -19z" />
    <glyph glyph-name="D" unicode="D" horiz-adv-x="1260" 
d="M172 -1224c-2 -46 27 -70 64 -70c202 0 433 -12 577 44c224 88 354 278 354 584c0 439 -215 666 -657 666h-274c-36 -2 -64 -24 -64 -70v-1154zM521 -144c333 3 465 -184 465 -515c0 -310 -145 -494 -467 -492h-175v1007h177z" />
    <glyph glyph-name="E" unicode="E" horiz-adv-x="1000" 
d="M857 -143c32 3 35 35 35 72c-1 35 -3 71 -35 71h-621c-36 -2 -64 -24 -64 -70v-1154c-2 -46 27 -70 64 -70h614c32 3 34 37 34 73c0 34 -3 70 -34 70h-506v406h434c31 3 34 36 34 72c0 34 -3 67 -34 67h-434v463h513z" />
    <glyph glyph-name="F" unicode="F" horiz-adv-x="941" 
d="M818 -1294c31 4 34 38 34 74s-3 72 -34 72h-474v440h448c32 3 34 34 34 71c0 36 -4 72 -34 72h-448v539c-5 34 -46 32 -86 32c-39 0 -86 2 -86 -32v-1198c-2 -46 27 -70 64 -70h582z" />
    <glyph glyph-name="G" unicode="G" horiz-adv-x="1292" 
d="M1080 -708c40 2 61 27 61 70v493c0 78 -61 85 -122 110c-153 64 -401 73 -561 7c-228 -94 -367 -293 -367 -607c0 -323 149 -530 381 -629c204 -87 523 -47 649 67c20 18 23 38 23 79c0 35 -1 71 -31 75c-36 -9 -72 -39 -115 -61c-110 -56 -326 -87 -460 -22
c-165 80 -266 241 -266 478c0 246 102 409 276 482c128 55 315 39 421 -24v-377h-300c-29 -3 -34 -32 -34 -70c0 -36 2 -71 34 -71h411z" />
    <glyph glyph-name="H" unicode="H" horiz-adv-x="1276" 
d="M1019 -1300c39 0 85 -2 85 32v1242c-4 34 -46 32 -85 32c-40 0 -86 3 -86 -32v-574h-589v574c-5 34 -47 32 -86 32s-86 3 -86 -32v-1242c4 -34 47 -32 86 -32c40 0 86 -3 86 32v518h589v-518c5 -34 46 -32 86 -32z" />
    <glyph glyph-name="I" unicode="I" horiz-adv-x="516" 
d="M258 -1300c40 0 86 -3 86 32v1242c-5 34 -47 32 -86 32s-86 3 -86 -32v-1242c5 -33 48 -32 86 -32z" />
    <glyph glyph-name="J" unicode="J" horiz-adv-x="653" 
d="M398 -1300c40 0 86 -2 86 31v943c7 232 -104 376 -344 340c-71 -11 -141 -27 -133 -121c3 -36 -2 -72 30 -75c45 14 80 48 145 48c118 0 130 -89 130 -209v-926c5 -33 46 -31 86 -31z" />
    <glyph glyph-name="K" unicode="K" horiz-adv-x="1064" 
d="M802 -1268c25 -41 173 -52 188 0c-2 29 -12 39 -31 62l-429 513l462 614c15 25 21 29 24 51c-5 49 -96 33 -145 31c-27 -1 -39 -14 -51 -29l-476 -647v647c-5 34 -46 32 -86 32c-39 0 -86 2 -86 -32v-1242c4 -34 47 -32 86 -32c40 0 86 -3 86 32v575z" />
    <glyph glyph-name="L" unicode="L" horiz-adv-x="861" 
d="M808 -149c33 3 35 37 35 74s-2 75 -35 75h-572c-36 -2 -64 -24 -64 -70v-1198c4 -34 47 -32 86 -32c40 0 86 -3 86 32v1119h464z" />
    <glyph glyph-name="M" unicode="M" horiz-adv-x="1751" 
d="M1506 -1294c48 1 72 29 73 78v1190c-5 34 -45 32 -84 32c-38 0 -83 2 -83 -32v-1127h-2l-461 1132c-20 40 -125 32 -161 11c-4 -3 -6 -7 -7 -11l-442 -1132v1127c-5 34 -46 32 -85 32c-38 0 -82 2 -82 -32v-1190c-2 -50 29 -78 71 -78c95 0 197 -10 232 58
c7 14 14 29 21 47l375 937h5l390 -934c23 -60 50 -108 131 -108h109z" />
    <glyph glyph-name="N" unicode="N" horiz-adv-x="1322" 
d="M1070 -1297c38 0 80 0 80 32v1194c6 85 -100 88 -174 69c-59 -15 -80 -69 -110 -124l-472 -856c-22 -39 -38 -84 -63 -121l4 296v781c-5 33 -43 32 -82 32s-81 1 -81 -32v-1194c-7 -96 120 -82 200 -69c53 9 72 54 97 100l422 767l99 188l-3 -329v-702
c5 -33 43 -32 83 -32z" />
    <glyph glyph-name="O" unicode="O" horiz-adv-x="1356" 
d="M691 -1313c400 0 565 247 565 651c0 415 -179 681 -591 681c-405 0 -566 -251 -566 -659c0 -411 183 -673 592 -673zM674 -130c299 -2 401 -222 401 -520c0 -299 -94 -516 -394 -516c-295 0 -400 219 -400 514c0 303 88 524 393 522z" />
    <glyph glyph-name="P" unicode="P" horiz-adv-x="1058" 
d="M517 -1294c267 0 450 115 450 379c0 285 -182 420 -476 423h-147v466c-5 34 -46 32 -86 32s-86 3 -86 -32v-1194c-2 -48 28 -74 68 -74h277zM499 -633c185 -1 287 -92 287 -268c0 -174 -110 -254 -283 -251h-159v519h155z" />
    <glyph glyph-name="Q" unicode="Q" horiz-adv-x="1378" 
d="M1256 -663c1 226 -55 401 -164 518c92 76 172 129 275 169c38 15 48 37 48 90c-1 38 -1 73 -33 77c-109 -19 -203 -83 -291 -141c-44 -29 -87 -65 -128 -105c-72 42 -176 75 -298 74c-406 -2 -566 -250 -566 -659c0 -411 183 -673 592 -673c395 0 563 249 565 650z
M674 -130c299 -2 401 -223 401 -521c0 -299 -94 -515 -394 -515c-296 0 -400 219 -400 514c0 303 88 524 393 522z" />
    <glyph glyph-name="R" unicode="R" horiz-adv-x="1112" 
d="M958 -953c0 188 -109 274 -250 325c100 45 146 139 189 244l116 285c13 35 19 45 22 73c-4 46 -85 30 -135 30c-30 0 -42 -15 -51 -39l-119 -305c-51 -122 -101 -236 -271 -237h-115v551c-5 34 -46 32 -86 32s-86 3 -86 -32v-1198c-2 -46 27 -70 64 -70h275
c267 -2 447 89 447 341zM512 -716c159 -2 264 -66 264 -219c0 -163 -109 -223 -287 -217h-145v436h168z" />
    <glyph glyph-name="S" unicode="S" horiz-adv-x="941" 
d="M490 -1170c-127 3 -212 58 -212 180c0 172 172 206 294 268c144 73 295 146 295 359c0 295 -256 420 -561 371c-84 -14 -164 -45 -212 -89c-18 -17 -23 -42 -23 -80c0 -37 -1 -73 32 -76c35 7 66 36 105 54c59 26 135 57 227 55c148 -4 252 -68 252 -216
c0 -173 -171 -204 -292 -266c-144 -74 -283 -150 -292 -364c-14 -336 430 -419 669 -258c23 16 22 41 22 80c0 33 2 70 -27 74c-81 -31 -156 -95 -277 -92z" />
    <glyph glyph-name="T" unicode="T" horiz-adv-x="998" 
d="M949 -1294c32 3 34 38 34 74s-2 72 -34 72h-364v1122c-5 34 -47 32 -86 32s-86 3 -86 -32v-1122h-364c-32 -3 -34 -37 -34 -72s2 -74 34 -74h900z" />
    <glyph glyph-name="U" unicode="U" horiz-adv-x="1314" 
d="M1060 -1300c39 0 85 -2 85 32v790c-6 320 -177 497 -498 497c-308 0 -477 -172 -477 -484v-803c5 -34 46 -32 86 -32c39 0 85 -3 85 32v782c1 223 100 358 317 358c216 0 316 -130 316 -349v-791c5 -34 47 -32 86 -32z" />
    <glyph glyph-name="V" unicode="V" horiz-adv-x="1162" 
d="M695 -30c-19 54 -135 38 -199 28c-17 -3 -25 -13 -30 -29l-423 -1202c-15 -35 -11 -64 29 -65c49 0 130 -15 146 32l372 1089l368 -1105c19 -27 96 -18 139 -16c39 2 31 35 20 66z" />
    <glyph glyph-name="W" unicode="W" horiz-adv-x="1822" 
d="M1606 -1292c44 -8 151 -26 154 24c0 9 -2 21 -6 36l-343 1194c-16 63 -141 48 -207 36c-19 -4 -26 -17 -32 -36l-271 -977h-2l-250 977c-9 59 -106 42 -171 42c-37 0 -59 -11 -68 -42l-342 -1195c-12 -36 -10 -65 29 -65c48 0 143 -20 146 34l292 1084l276 -1082
c8 -56 117 -39 170 -30c14 5 18 15 22 30l297 1082h2l291 -1100c2 -5 7 -9 13 -12z" />
    <glyph glyph-name="X" unicode="X" horiz-adv-x="1063" 
d="M996 -62c22 30 24 64 -20 66c-52 2 -137 11 -159 -29l-288 -515l-291 515c-15 42 -103 32 -156 29c-42 -2 -34 -36 -16 -66l353 -595l-337 -575c-18 -28 -29 -65 17 -66c53 -2 138 -11 161 29l278 484l286 -499c27 -25 129 -21 166 -4c15 17 4 35 -8 56l-336 571z" />
    <glyph glyph-name="Y" unicode="Y" horiz-adv-x="998" 
d="M499 6c-40 0 -87 3 -87 -32v-477l-366 -730c-16 -30 -26 -64 18 -65c54 -2 137 -11 158 32l179 372l101 228h2l97 -225l189 -391c28 -27 132 -23 169 -6c14 17 3 34 -8 55l-366 730v477c-4 34 -47 32 -86 32z" />
    <glyph glyph-name="Z" unicode="Z" horiz-adv-x="959" 
d="M881 -145c30 3 35 32 35 73c0 36 -2 72 -35 72h-764c-79 6 -66 -132 -36 -180l619 -970h-590c-34 -1 -37 -34 -37 -70c0 -38 1 -74 37 -74h720c82 -6 66 135 36 184l-617 965h632z" />
    <glyph glyph-name="a" unicode="a" horiz-adv-x="981" 
d="M476 -970c237 -2 355 103 355 339v607c-4 31 -34 30 -71 30c-36 0 -71 2 -71 -30v-90c-69 73 -159 133 -285 133c-188 0 -312 -89 -312 -274c0 -277 278 -306 575 -299c11 -176 -34 -282 -206 -282c-108 0 -188 41 -255 78c-16 10 -29 15 -37 15
c-47 -6 -43 -108 -13 -131c71 -56 191 -94 320 -96zM430 -110c114 -4 168 -61 237 -134v-191c-194 -2 -404 -13 -406 172c-1 97 68 156 169 153z" />
    <glyph glyph-name="b" unicode="b" horiz-adv-x="1076" 
d="M318 -822c80 -77 153 -148 299 -148c269 0 364 212 364 483c0 228 -71 395 -222 471c-48 23 -103 35 -165 35c-149 -2 -216 -76 -295 -154v110c-3 32 -38 31 -74 31c-34 0 -72 2 -72 -31v-1336c3 -35 43 -32 82 -32c40 0 83 -2 83 32v539zM577 -123
c176 0 226 -166 230 -345c4 -207 -68 -407 -286 -351c-91 23 -144 94 -203 167v359c75 86 134 170 259 170z" />
    <glyph glyph-name="c" unicode="c" horiz-adv-x="866" 
d="M773 -238c45 14 33 134 1 160c-64 52 -164 97 -283 97c-285 0 -401 -193 -401 -483c0 -306 128 -505 420 -505c120 0 222 38 274 107c22 29 23 134 -19 138c-32 -5 -53 -35 -84 -53c-43 -26 -99 -55 -173 -53c-180 5 -247 154 -246 357c2 198 58 345 250 349
c104 2 171 -53 228 -96c14 -12 25 -18 33 -18z" />
    <glyph glyph-name="d" unicode="d" horiz-adv-x="1076" 
d="M840 -1389c40 0 84 -1 84 32v1332c-2 32 -38 31 -72 31c-36 0 -75 1 -75 -31v-119c-83 86 -168 163 -315 163c-272 0 -366 -211 -366 -483c0 -290 105 -506 388 -506c129 0 200 61 274 136v-523c4 -34 44 -32 82 -32zM267 -482c-4 207 68 407 287 351
c91 -23 145 -96 204 -167v-360c-74 -86 -135 -170 -260 -170c-177 0 -228 166 -231 346z" />
    <glyph glyph-name="e" unicode="e" horiz-adv-x="1019" 
d="M525 -970c277 0 396 174 396 456c0 46 -25 72 -64 72h-590c-1 207 85 327 293 327c106 0 190 -27 260 -57c16 -7 28 -11 36 -11c43 5 32 105 10 129c-75 45 -198 73 -323 73c-310 0 -450 -178 -450 -490c0 -234 90 -393 253 -465c53 -23 113 -34 179 -34zM755 -563
c5 -167 -74 -281 -237 -278c-166 3 -239 119 -251 278h488z" />
    <glyph glyph-name="f" unicode="f" horiz-adv-x="625" 
d="M196 -951c-12 -261 38 -458 290 -449c83 3 170 7 160 105c-3 28 2 58 -23 61c-39 -9 -73 -29 -126 -29c-152 0 -134 161 -135 312h201c30 3 33 35 33 69c0 38 -5 68 -33 68h-201v789c-5 33 -44 31 -83 31s-83 2 -83 -31v-789h-127c-28 -3 -32 -30 -32 -68
c0 -34 1 -69 32 -69h127z" />
    <glyph glyph-name="g" unicode="g" horiz-adv-x="964" 
d="M871 -951c49 1 47 133 0 133h-129c42 41 63 96 63 170c0 215 -135 320 -349 325c-69 2 -145 -21 -181 -51c-37 32 -65 116 -9 152c22 14 51 23 87 25c165 10 354 -5 455 75c50 39 87 95 87 179c0 226 -193 308 -438 308c-180 0 -321 -35 -382 -145
c-16 -29 -22 -62 -22 -97c2 -115 63 -173 130 -227c-56 -28 -95 -74 -96 -145c-1 -88 43 -148 87 -195c-40 -50 -69 -106 -67 -196c4 -213 136 -323 349 -328c54 -1 101 6 143 17h272zM456 -450c125 -1 189 -76 191 -197c2 -122 -71 -197 -194 -195c-125 2 -187 79 -189 201
c-2 118 72 192 192 191zM465 239c147 0 265 -38 265 -173c0 -163 -249 -116 -409 -131c-54 46 -106 82 -106 172c0 106 122 132 250 132z" />
    <glyph glyph-name="h" unicode="h" horiz-adv-x="1076" 
d="M606 -970c236 0 322 153 322 397v548c-4 33 -43 31 -82 31c-40 0 -83 3 -83 -31v-527c0 -162 -41 -275 -191 -275c-119 0 -181 88 -254 173v629c-5 33 -44 31 -83 31c-38 0 -82 3 -82 -31v-1336c3 -35 43 -32 82 -32c40 0 83 -2 83 32v539c78 -81 158 -148 288 -148z" />
    <glyph glyph-name="i" unicode="i" horiz-adv-x="470" 
d="M235 -956c40 0 83 -2 83 31v900c-5 33 -44 31 -83 31c-38 0 -82 3 -82 -31v-900c4 -33 44 -31 82 -31zM236 -1327c78 0 101 20 101 98c0 79 -23 100 -103 100c-78 0 -101 -20 -101 -98c0 -79 23 -100 103 -100z" />
    <glyph glyph-name="j" unicode="j" horiz-adv-x="490" 
d="M254 -956c39 0 83 -2 83 31v940c8 237 -82 372 -319 346c-46 -5 -65 -23 -61 -75c1 -31 -1 -67 26 -67c15 0 42 6 64 5c114 -4 124 -84 124 -210v-939c5 -33 44 -31 83 -31zM255 -1327c79 0 101 20 101 98c0 79 -23 100 -103 100c-78 0 -100 -20 -100 -98
c0 -79 22 -100 102 -100z" />
    <glyph glyph-name="k" unicode="k" horiz-adv-x="931" 
d="M658 -921c26 -43 179 -57 198 -5c-2 24 -12 36 -28 52l-326 326l366 475c13 18 22 26 24 47c-9 50 -111 33 -161 26c-17 -2 -25 -14 -33 -26l-380 -498v499c-5 33 -44 31 -83 31c-38 0 -82 3 -82 -31v-1336c3 -35 43 -32 82 -32c40 0 83 -2 83 32v814z" />
    <glyph glyph-name="l" unicode="l" horiz-adv-x="470" 
d="M235 -1393c40 0 83 -2 83 32v1336c-5 33 -44 31 -83 31c-38 0 -82 3 -82 -31v-1336c3 -35 43 -32 82 -32z" />
    <glyph glyph-name="m" unicode="m" horiz-adv-x="1636" 
d="M1179 -970c224 0 309 154 309 376v569c-4 33 -43 31 -82 31c-40 0 -84 3 -84 -31v-547c-1 -142 -40 -255 -178 -255c-114 0 -168 90 -241 173v629c-5 33 -44 31 -83 31c-38 0 -82 3 -82 -31v-547c-3 -140 -41 -255 -179 -255c-113 0 -169 89 -241 173v629
c-5 33 -44 31 -83 31c-38 0 -82 3 -82 -31v-900c3 -33 38 -31 75 -31s74 -1 74 31v119c83 -90 156 -164 292 -164c150 0 234 71 277 178c85 -85 156 -178 308 -178z" />
    <glyph glyph-name="n" unicode="n" horiz-adv-x="1076" 
d="M606 -970c236 0 322 153 322 396v549c-4 33 -43 31 -82 31c-40 0 -83 3 -83 -31v-527c0 -162 -41 -275 -191 -275c-119 0 -181 88 -254 173v629c-5 33 -44 31 -83 31c-38 0 -82 3 -82 -31v-900c3 -33 38 -31 75 -31s74 -1 74 31v119c83 -91 164 -164 304 -164z" />
    <glyph glyph-name="o" unicode="o" horiz-adv-x="1080" 
d="M549 -970c303 0 441 182 441 485c0 308 -151 504 -460 504c-303 0 -440 -182 -440 -486c0 -308 149 -503 459 -503zM538 -120c203 0 278 -148 278 -354c0 -205 -66 -358 -274 -358c-204 0 -279 150 -279 354c0 207 67 358 275 358z" />
    <glyph glyph-name="p" unicode="p" horiz-adv-x="1076" 
d="M618 -970c270 0 363 211 363 481c0 292 -107 508 -390 508c-136 0 -199 -68 -273 -137v450c-4 34 -43 32 -83 32c-39 0 -82 3 -82 -32v-1257c1 -34 37 -31 72 -31c36 0 73 -2 73 31v121c85 -83 163 -166 320 -166zM575 -123c177 0 232 -168 232 -347
c0 -185 -40 -358 -222 -358c-137 0 -194 93 -267 176v358c75 86 133 171 257 171z" />
    <glyph glyph-name="q" unicode="q" horiz-adv-x="1076" 
d="M852 -956c35 0 72 -2 72 31v1257c-5 33 -43 32 -83 32s-83 3 -83 -32v-461c-80 77 -152 148 -299 148c-270 0 -363 -212 -363 -483c0 -228 71 -395 222 -470c48 -24 104 -36 167 -36c146 0 210 79 292 154v-109c3 -33 39 -31 75 -31zM267 -482c-4 208 68 407 287 351
c91 -23 145 -96 204 -167v-360c-74 -86 -135 -170 -260 -170c-177 0 -227 166 -231 346z" />
    <glyph glyph-name="r" unicode="r" horiz-adv-x="714" 
d="M228 -956c37 0 74 -1 74 31v131c66 -114 195 -226 363 -150c18 15 14 43 14 78s5 73 -25 78c-48 -11 -110 -43 -166 -16c-78 37 -119 110 -170 187v592c-5 33 -44 31 -83 31c-38 0 -82 3 -82 -31v-900c3 -33 38 -31 75 -31z" />
    <glyph glyph-name="s" unicode="s" horiz-adv-x="801" 
d="M429 -842c-98 2 -168 37 -168 130c0 124 136 140 229 181c113 50 223 101 228 261c8 284 -351 345 -581 238c-42 -20 -58 -38 -56 -99c1 -32 -1 -65 28 -68c76 30 144 89 259 86c107 -3 187 -38 187 -144c0 -122 -134 -138 -225 -178c-114 -50 -222 -106 -227 -268
c-7 -260 347 -329 545 -208c23 14 24 38 24 73c0 30 0 61 -26 65c-62 -25 -122 -71 -217 -69z" />
    <glyph glyph-name="t" unicode="t" horiz-adv-x="686" 
d="M598 -152c41 18 30 142 -17 147c-34 14 -79 21 -126 22c-193 2 -263 -110 -263 -305v-526h-126c-27 -3 -33 -31 -33 -68c0 -34 2 -69 34 -69h125v-214c4 -33 43 -32 82 -32c40 0 83 -1 83 32v214h231c31 2 33 34 33 69c0 38 -5 68 -33 68h-231v502c2 113 21 186 126 188
c48 1 78 -20 115 -28z" />
    <glyph glyph-name="u" unicode="u" horiz-adv-x="1076" 
d="M841 -956c40 0 83 -2 83 31v900c-3 32 -39 31 -75 31c-37 0 -75 2 -75 -31v-119c-85 91 -164 163 -304 163c-237 0 -322 -153 -322 -398v-546c4 -34 44 -31 83 -31c40 0 83 -3 83 31v524c-1 165 40 278 190 278c119 0 180 -88 254 -173v-629c4 -34 43 -31 83 -31z" />
    <glyph glyph-name="v" unicode="v" horiz-adv-x="925" 
d="M744 -949c51 -9 171 -30 142 51l-310 868c-18 54 -135 38 -196 28c-16 -3 -24 -14 -30 -28l-316 -890c-5 -54 79 -34 128 -34c28 0 41 9 49 30l258 754l261 -769c3 -4 8 -7 14 -10z" />
    <glyph glyph-name="w" unicode="w" horiz-adv-x="1464" 
d="M1266 -950c48 -6 165 -28 144 40l-272 880c-16 56 -134 38 -194 28c-16 -3 -23 -13 -28 -28l-191 -662l-177 662c-16 55 -136 38 -196 28c-16 -3 -22 -13 -27 -28l-270 -880c-16 -64 71 -44 125 -44c28 0 40 8 46 30l219 751l201 -751c8 -47 102 -33 149 -26
c11 4 16 12 19 24l217 753l215 -751c3 -13 8 -22 20 -26z" />
    <glyph glyph-name="x" unicode="x" horiz-adv-x="887" 
d="M680 -950c48 -11 183 -24 140 44l-263 418l278 444c28 48 -33 51 -81 50s-84 1 -101 -28l-216 -357l-225 369c-19 16 -50 15 -88 16c-48 2 -102 -4 -73 -50l280 -439l-265 -423c-29 -47 29 -52 81 -50c46 1 81 -2 98 26l205 335l208 -335c6 -9 11 -17 22 -20z" />
    <glyph glyph-name="y" unicode="y" horiz-adv-x="927" 
d="M736 -946c47 -16 180 -33 150 51l-443 1226c-16 40 -126 41 -171 22c-12 -9 -12 -23 -5 -40l124 -313c-12 -5 -23 -19 -28 -32l-321 -860c-5 -14 -8 -25 -8 -33c5 -49 110 -30 156 -24c15 6 18 16 24 32l257 722h3l248 -726c4 -13 8 -21 14 -25z" />
    <glyph glyph-name="z" unicode="z" horiz-adv-x="809" 
d="M691 -139c32 2 36 34 36 69s-3 70 -36 70h-554c-81 -4 -48 -158 -12 -194l397 -618h-385c-29 -3 -35 -31 -35 -70c0 -35 2 -69 35 -69h516c82 5 38 151 11 194l-395 618h422z" />
    <glyph glyph-name="grave" unicode="`" horiz-adv-x="596" 
d="M455 -1134c13 17 12 37 -13 40c-45 7 -106 5 -120 -29l-181 -233c-26 -39 22 -46 67 -46c51 0 84 6 103 37zM0 -951z" />
    <glyph glyph-name="exclam" unicode="!" horiz-adv-x="667" 
d="M298 -1363c47 -18 165 -28 164 36l-17 954c-3 33 -38 32 -74 32s-73 1 -74 -32l-17 -954c-1 -18 5 -31 18 -36zM371 -218c80 0 105 33 105 114c0 80 -25 114 -105 114s-105 -34 -105 -114c0 -81 25 -114 105 -114z" />
    <glyph glyph-name="question" unicode="?" horiz-adv-x="949" 
d="M346 -1365c297 -50 511 92 509 374c-2 233 -126 360 -343 379l-7 241c-4 28 -35 30 -74 30c-36 0 -76 3 -77 -30l-6 -277c-4 -62 29 -78 94 -78c160 0 240 -94 240 -251c0 -166 -90 -257 -259 -259c-99 -1 -168 34 -229 67c-14 8 -24 12 -31 12c-40 -2 -30 -73 -27 -111
c33 -62 128 -83 210 -97zM435 -218c79 0 104 34 104 114s-25 114 -104 114c-81 0 -106 -33 -106 -114s25 -114 106 -114z" />
    <glyph glyph-name="comma" unicode="," horiz-adv-x="511" 
d="M276 -224c64 0 95 15 95 81c0 90 -24 145 -60 199l-137 206c-17 31 -86 35 -126 22c-7 -5 -7 -15 -2 -24l133 -275v-128c-3 -66 32 -81 97 -81z" />
    <glyph glyph-name="semicolon" unicode=";" horiz-adv-x="548" 
d="M292 -917c81 0 105 35 105 117c0 80 -25 114 -105 114c-81 0 -105 -34 -105 -114c0 -82 23 -117 105 -117zM303 -224c63 0 94 16 94 81c0 89 -23 145 -59 199l-136 204c-16 32 -85 36 -124 22c-8 -6 -7 -13 -2 -24l131 -273v-128c-3 -65 32 -81 96 -81z" />
    <glyph glyph-name="colon" unicode=":" horiz-adv-x="548" 
d="M292 -917c81 0 105 35 105 117c0 80 -25 114 -105 114c-81 0 -105 -34 -105 -114c0 -82 23 -117 105 -117zM292 -222c80 0 105 35 105 116c0 80 -25 115 -105 115c-81 0 -105 -34 -105 -115s24 -116 105 -116z" />
    <glyph glyph-name="period" unicode="." horiz-adv-x="517" 
d="M260 -224c85 0 106 25 106 115c0 92 -21 118 -109 118c-85 0 -106 -25 -106 -115c0 -92 21 -118 109 -118z" />
    <glyph glyph-name="slash" unicode="/" horiz-adv-x="791" 
d="M168 241c-9 53 -114 49 -154 27c-13 -7 -13 -21 -7 -39l605 -1659c8 -53 112 -48 153 -27c13 6 15 22 8 39z" />
    <glyph glyph-name="bar" unicode="|" horiz-adv-x="943" 
d="M471 -1434c38 0 78 -2 78 31v1736c-3 34 -40 32 -78 32c-37 0 -77 1 -77 -32v-1736c3 -32 40 -31 77 -31z" />
    <glyph glyph-name="backslash" unicode="\" horiz-adv-x="791" 
d="M18 -1413c-24 -49 22 -52 69 -50c43 1 79 -3 90 27l606 1659c22 50 -23 52 -70 51c-42 -2 -79 3 -90 -28z" />
    <glyph glyph-name="hyphen" unicode="-" horiz-adv-x="627" 
d="M523 -573c32 1 35 34 35 68c0 41 -4 69 -35 69h-418c-31 -3 -36 -28 -36 -69s4 -68 36 -68h418z" />
    <glyph glyph-name="hyphen" unicode="&#x2010;" horiz-adv-x="627" 
d="M523 -573c32 1 35 34 35 68c0 41 -4 69 -35 69h-418c-31 -3 -36 -28 -36 -69s4 -68 36 -68h418z" />
    <glyph glyph-name="hyphen" unicode="&#xad;" horiz-adv-x="627" 
d="M523 -573c32 1 35 34 35 68c0 41 -4 69 -35 69h-418c-31 -3 -36 -28 -36 -69s4 -68 36 -68h418z" />
    <glyph glyph-name="underscore" unicode="_" horiz-adv-x="1020" 
d="M991 232c28 3 33 30 33 66c-1 38 -4 67 -33 67h-963c-29 -3 -35 -27 -35 -65c0 -37 6 -68 35 -68h963z" />
    <glyph glyph-name="parenleft" unicode="(" horiz-adv-x="621" 
d="M495 -1378c-160 339 -245 816 -141 1264c32 141 77 279 139 414c18 40 -20 45 -62 45c-35 0 -67 0 -78 -21c-153 -278 -264 -656 -205 -1084c34 -245 112 -460 212 -647c32 -17 160 -25 135 29z" />
    <glyph glyph-name="parenright" unicode=")" horiz-adv-x="621" 
d="M268 324c-19 35 -171 40 -140 -24c165 -339 242 -817 139 -1266c-32 -141 -81 -277 -141 -412c-20 -46 56 -43 100 -40c19 1 35 5 41 18c150 294 261 659 206 1086c-31 245 -103 455 -205 638z" />
    <glyph glyph-name="bracketleft" unicode="[" horiz-adv-x="628" 
d="M510 199c27 3 29 31 29 61c0 35 -3 60 -29 60h-256c-42 -1 -63 -26 -63 -70v-1579c1 -43 21 -70 63 -70h256c27 3 29 32 29 62c0 34 -4 60 -29 60h-163v1476h163z" />
    <glyph glyph-name="bracketright" unicode="]" horiz-adv-x="628" 
d="M374 -1399c42 1 63 26 64 70v1579c0 45 -22 70 -64 70h-255c-25 -3 -29 -26 -29 -60c1 -31 1 -61 29 -61h163v-1476h-163c-25 -3 -29 -26 -29 -60c1 -31 1 -62 29 -62h255z" />
    <glyph glyph-name="braceleft" unicode="{" horiz-adv-x="644" 
d="M544 195c32 0 36 28 36 62c0 31 -6 55 -31 60c-24 4 -36 5 -64 5c-310 8 -185 -393 -229 -678c-12 -79 -54 -139 -138 -148c-40 -4 -37 -72 -26 -106c4 -11 13 -15 25 -16c163 -16 149 -231 147 -420c-1 -210 22 -359 221 -362c28 0 38 2 62 5c28 4 33 28 33 60
c-1 33 -3 61 -34 62c-52 0 -94 0 -110 43c-29 77 -21 228 -21 345c0 175 -39 294 -177 328c139 32 177 153 177 328v190c1 93 2 144 21 199c14 42 55 43 108 43z" />
    <glyph glyph-name="braceright" unicode="}" horiz-adv-x="644" 
d="M582 -627c40 4 35 73 24 105c-3 9 -12 13 -23 15c-173 29 -147 265 -147 467c0 210 -22 359 -221 362c-28 0 -39 -2 -65 -5c-46 -5 -46 -122 1 -122c53 0 95 0 112 -43c30 -76 19 -228 21 -345c3 -182 35 -333 177 -373c-134 -27 -177 -116 -177 -283v-190
c-1 -94 -1 -144 -20 -199c-14 -41 -54 -44 -107 -43c-35 0 -40 -26 -40 -62c1 -32 6 -56 36 -60c23 -3 35 -5 62 -5c271 -8 221 305 221 568c0 136 33 201 146 213z" />
    <glyph glyph-name="asterisk" unicode="*" horiz-adv-x="1020" 
d="M841 -935c27 22 9 43 -11 80c-15 27 -28 43 -38 49s-18 6 -26 0l-213 -155l28 262c0 31 -30 31 -75 31s-78 0 -75 -31l28 -262l-212 155c-37 12 -43 -15 -65 -49c-17 -25 -24 -45 -24 -57s5 -19 14 -23l241 -107l-241 -106c-27 -23 -12 -45 10 -81c21 -34 28 -60 65 -48
l212 154l-28 -261c0 -32 30 -32 75 -32c46 0 78 0 75 32l-28 261l213 -154c37 -12 43 15 64 49c22 36 37 57 11 80l-241 106z" />
    <glyph glyph-name="asciicircum" unicode="^" horiz-adv-x="1020" 
d="M253 -574c-52 12 -173 31 -138 -50l284 -648c20 -46 124 -38 178 -26c15 3 26 13 32 26l291 648c15 29 12 56 -24 56c-50 1 -127 10 -144 -30l-232 -551l-222 551c-5 12 -11 21 -25 24z" />
    <glyph glyph-name="asciitilde" unicode="~" horiz-adv-x="1020" 
d="M896 -1102c34 0 66 -1 66 32c0 187 -86 300 -257 307c-172 7 -213 -121 -302 -201c-22 -20 -48 -34 -87 -34c-94 0 -121 79 -124 174c-1 29 -31 28 -66 29c-45 1 -65 -5 -65 -57c0 -202 137 -316 339 -270c128 29 154 160 258 213c14 7 30 9 49 9c95 -2 121 -78 124 -175
c1 -27 31 -27 65 -27z" />
    <glyph glyph-name="quotesingle" unicode="'" horiz-adv-x="452" 
d="M226 -1397c40 0 88 -3 86 32l-22 463c-2 30 -31 32 -64 32s-62 -2 -64 -32l-23 -463c6 -33 47 -32 87 -32z" />
    <glyph glyph-name="quotedbl" unicode="&#x22;" horiz-adv-x="821" 
d="M580 -1397c39 0 87 -2 85 32l-22 463c-1 30 -31 32 -63 32c-33 0 -62 -2 -63 -32l-23 -463c6 -33 47 -32 86 -32zM225 -1397c48 0 79 1 86 32l-23 463c-1 30 -31 32 -63 32c-33 0 -62 -2 -63 -32l-23 -463c6 -33 47 -32 86 -32z" />
    <glyph glyph-name="ampersand" unicode="&#x26;" horiz-adv-x="1397" 
d="M960 -138c-121 105 -315 189 -542 145c-181 -35 -310 -137 -310 -348c0 -207 133 -290 270 -378c-67 -100 -150 -173 -150 -322c0 -218 154 -313 385 -313c203 0 345 74 345 268c0 155 -89 222 -188 294c-43 31 -96 63 -158 96l74 86l84 89l88 89l90 83
c56 -81 88 -189 88 -330c0 -38 38 -35 79 -36c52 -1 86 -1 82 62c-10 170 -57 300 -131 401c30 24 55 45 78 60c48 31 74 67 141 65c41 -1 23 82 21 119c-14 32 -77 31 -116 18c-90 -30 -152 -88 -230 -148zM598 -1218c-137 0 -223 84 -188 219c20 80 69 136 115 202
c103 -61 201 -104 245 -206c53 -121 -38 -215 -172 -215zM463 -615c-90 62 -176 119 -176 257c0 186 161 263 352 228c82 -15 147 -56 201 -102l-104 -94l-99 -97l-93 -97c-30 -32 -56 -64 -81 -95zM0 -1294z" />
    <glyph glyph-name="at" unicode="@" horiz-adv-x="1831" 
d="M1021 -1326c396 0 635 171 635 557c0 271 -75 492 -266 579c-40 17 -86 25 -137 25c-116 -2 -189 -51 -209 -149c-78 73 -151 141 -289 149c-302 17 -253 -413 -156 -601c56 -108 140 -200 301 -200c113 0 167 62 221 128c16 -55 -2 -126 87 -116c29 3 66 -1 60 28
l-89 460c-20 109 3 170 99 170c169 0 198 -196 218 -361c44 -358 -139 -545 -491 -538c-485 10 -673 324 -682 803c-7 352 188 503 550 503c133 0 244 -29 342 -53c36 8 27 106 4 126c-89 42 -229 57 -368 59c-484 7 -727 -247 -675 -743c51 -493 298 -826 845 -826z
M701 -605c-29 118 -50 318 96 309c113 -7 162 -85 231 -148l48 -260c-46 -88 -134 -173 -245 -112c-71 39 -108 123 -130 211zM0 -1294z" />
    <glyph glyph-name="dollar" unicode="$" 
d="M797 -1085c-136 -86 -507 -127 -500 109c5 181 181 206 317 258c162 62 318 130 318 352c0 249 -190 348 -435 366l-22 217c-5 41 -90 29 -123 19c-10 -3 -12 -11 -11 -24l23 -216c-98 -14 -192 -33 -250 -82c-18 -15 -18 -38 -18 -74c0 -38 -1 -75 34 -77
c94 38 186 94 334 94c167 0 289 -62 289 -208c0 -179 -180 -205 -315 -257c-160 -62 -313 -133 -313 -354c0 -220 156 -314 371 -331l20 -202c4 -42 90 -29 124 -19c9 5 12 11 11 24l-22 200c77 9 159 31 207 68c21 16 22 44 22 79c0 32 2 67 -26 71c-7 0 -20 -3 -35 -13z
" />
    <glyph glyph-name="numbersign" unicode="#" horiz-adv-x="1020" 
d="M949 -950c46 1 49 127 0 127h-131l-40 332h116c47 1 48 127 0 127h-133l-42 342c-6 43 -94 28 -135 22c-9 -4 -14 -10 -13 -22l42 -342h-278l-42 342c-6 43 -95 29 -135 22c-9 -4 -14 -10 -13 -22l41 -342h-116c-47 -1 -48 -127 0 -127h134l41 -332h-121
c-48 0 -47 -127 0 -127h136l41 -321c8 -42 98 -31 137 -21c9 2 13 10 12 20l-42 322h278l39 -321c8 -42 98 -30 138 -21c8 4 12 10 11 20l-40 322h115zM392 -823l-40 332h277l42 -332h-279z" />
    <glyph glyph-name="zero" unicode="0" 
d="M532 -1313c364 0 435 292 435 663c0 373 -93 669 -461 669c-363 0 -434 -292 -434 -663s93 -669 460 -669zM614 -140c192 -83 190 -406 170 -672c-15 -193 -57 -360 -262 -360c-251 0 -274 259 -274 516c0 170 11 308 62 412c39 78 98 120 206 122c37 0 70 -6 98 -18z
" />
    <glyph glyph-name="one" unicode="1" 
d="M891 -138c31 3 36 35 36 70s-5 68 -36 68h-676c-51 -5 -50 -138 0 -138h270v-984l-250 149c-25 16 -55 20 -59 -14c-5 -42 -3 -94 27 -113l308 -196c18 -6 39 -8 66 -7c37 2 80 -4 80 28v1137h234z" />
    <glyph glyph-name="two" unicode="2" 
d="M885 -146c32 3 39 35 39 72c0 36 -4 74 -38 74h-715c-89 4 -62 -152 -17 -184l251 -266c118 -130 216 -231 258 -407c40 -170 -37 -305 -204 -304c-111 0 -189 49 -255 91c-16 11 -29 17 -37 17c-46 -12 -35 -131 -2 -155c76 -55 191 -104 326 -105
c272 -3 423 179 363 459c-46 215 -179 339 -327 494l-205 214h563z" />
    <glyph glyph-name="three" unicode="3" 
d="M854 -995c0 181 -96 280 -243 317c174 25 303 120 303 308c0 305 -260 425 -576 378c-82 -12 -160 -39 -210 -77c-23 -17 -24 -50 -25 -91c-1 -58 17 -77 63 -48c71 45 169 86 288 85c162 -1 268 -74 268 -231c0 -217 -209 -241 -447 -241c-34 0 -41 -32 -41 -70
c0 -36 7 -66 40 -66h113c169 -3 283 -78 283 -242c0 -128 -80 -198 -212 -198c-108 0 -190 51 -256 93c-17 11 -28 17 -35 17c-48 -7 -32 -124 -3 -147c74 -58 191 -106 328 -105c222 2 362 101 362 318z" />
    <glyph glyph-name="four" unicode="4" 
d="M941 -439c53 1 52 142 0 142h-146v272c-5 34 -45 31 -85 31c-38 0 -82 3 -82 -31v-272h-534c-75 -1 -47 -142 -21 -186l466 -786c35 -46 158 -34 225 -22c16 3 31 10 31 26v826h146zM628 -1149h-2l-421 710h423v-710z" />
    <glyph glyph-name="five" unicode="5" 
d="M473 -788c268 3 445 113 445 372c0 328 -254 469 -597 426c-77 -10 -152 -30 -199 -64c-21 -15 -19 -44 -21 -80c-2 -49 14 -85 60 -56c65 41 156 68 269 67c189 -3 306 -86 306 -277s-133 -251 -330 -251c-72 0 -125 12 -187 12c-42 0 -52 -17 -52 -63v-527
c0 -42 20 -65 60 -65h573c33 3 37 37 38 74c0 39 -8 76 -38 76h-483v363c51 -7 95 -7 156 -7z" />
    <glyph glyph-name="six" unicode="6" 
d="M581 -794c252 0 376 129 376 375c0 273 -159 438 -439 438c-343 0 -410 -274 -411 -618c0 -431 157 -752 613 -709c64 6 132 19 164 56c12 32 24 120 -19 122c-70 -16 -135 -48 -231 -45c-260 7 -343 211 -356 465c80 -45 177 -83 303 -84zM534 -120
c167 0 245 -119 249 -283s-67 -257 -233 -255c-113 2 -199 39 -269 85c5 242 24 453 253 453z" />
    <glyph glyph-name="seven" unicode="7" 
d="M891 -1294c83 -3 51 135 29 187l-466 1074c-12 49 -103 40 -158 36c-31 -2 -40 -20 -28 -48l490 -1098h-621c-31 -2 -38 -37 -38 -76c0 -37 4 -75 38 -75h754z" />
    <glyph glyph-name="eight" unicode="8" 
d="M908 -1012c0 182 -125 263 -250 334c118 59 225 124 276 242c13 32 20 66 20 104c0 253 -184 351 -446 351c-244 0 -426 -85 -426 -321c0 -207 150 -281 294 -358c-126 -70 -249 -144 -249 -327c0 -227 166 -326 403 -326c223 0 378 88 378 301zM529 -742
c108 -58 209 -121 209 -254c0 -128 -89 -178 -221 -183c-160 -6 -260 110 -205 255c35 92 126 133 217 182zM521 -115c185 0 310 -119 242 -283c-42 -102 -153 -142 -257 -196c-99 51 -189 99 -234 196c-10 24 -16 51 -16 80c3 143 106 203 265 203z" />
    <glyph glyph-name="nine" unicode="9" 
d="M516 -1313c340 0 418 274 418 615c0 438 -170 760 -636 712c-62 -6 -124 -20 -160 -49c-16 -13 -19 -34 -19 -66c0 -34 -4 -66 28 -67c73 18 146 51 245 48c264 -6 358 -201 370 -459c-74 42 -175 79 -297 79c-258 0 -383 -132 -383 -384c0 -272 155 -429 434 -429z
M493 -635c105 0 203 -36 266 -82c-5 -245 -30 -459 -259 -459c-167 0 -244 116 -244 279c0 166 69 262 237 262z" />
    <glyph glyph-name="percent" unicode="%" horiz-adv-x="1464" 
d="M1116 -662c201 0 276 135 276 335c0 204 -82 342 -283 342c-203 0 -274 -134 -274 -338c0 -200 82 -339 281 -339zM1117 -96c119 0 135 -105 135 -226c0 -123 -20 -230 -140 -230c-115 0 -136 103 -136 223c0 129 16 233 141 233zM353 -1309c201 0 276 135 276 335
c0 204 -82 342 -283 342c-203 0 -274 -134 -274 -338c0 -200 82 -339 281 -339zM354 -743c119 0 135 -105 135 -226c0 -123 -20 -230 -140 -230c-115 0 -136 103 -136 223c0 129 16 233 141 233zM346 8c-18 35 -110 37 -142 14c-9 -13 -2 -25 6 -38l900 -1289
c17 -35 110 -37 142 -14c9 12 3 26 -5 38z" />
    <glyph glyph-name="plus" unicode="+" horiz-adv-x="1020" 
d="M913 -647c31 3 37 35 37 71s-5 72 -38 72h-328v364c-4 31 -38 32 -74 32c-35 0 -74 -1 -74 -32v-364h-328c-33 -3 -38 -36 -38 -72c0 -35 5 -71 37 -71h329v-364c3 -33 38 -35 74 -35c37 0 74 2 74 35v364h329z" />
    <glyph glyph-name="equal" unicode="=" horiz-adv-x="1020" 
d="M887 -841c30 3 38 31 38 70c1 42 -9 71 -38 71h-756c-29 -4 -37 -30 -37 -71c0 -39 7 -70 37 -70h756zM887 -453c31 3 38 31 38 71c1 42 -9 70 -38 70h-756c-29 -4 -37 -29 -37 -70c0 -40 7 -71 37 -71h756z" />
    <glyph glyph-name="less" unicode="&#x3c;" horiz-adv-x="1020" 
d="M880 -265c49 12 39 87 37 143c-1 26 -17 32 -38 21l-788 -398c-31 -22 -33 -138 3 -156l785 -396c43 -16 40 13 40 60c0 51 0 84 -35 101l-644 315z" />
    <glyph glyph-name="greater" unicode="&#x3e;" horiz-adv-x="1020" 
d="M929 -652c32 22 33 137 -3 156l-785 396c-37 20 -41 -21 -40 -60c0 -50 -1 -83 34 -100l645 -317l-662 -321c-26 -23 -20 -112 -8 -152c8 -10 19 -5 31 1z" />
    </font>
</defs>
</svg>
