<?xml version="1.0" standalone="no"?>
<!DOCTYPE svg PUBLIC "-//W3C//DTD SVG 1.1//EN" "http://www.w3.org/Graphics/SVG/1.1/DTD/svg11.dtd" >
<svg>
<metadata>
Created by FontForge 20090914 at Thu Apr 28 20:23:53 2011
 By www-data
&#194;&#169; 2006 Microsoft Corporation. All Rights Reserved.
</metadata>
<defs>
<font id="Calibri-BoldItalic" horiz-adv-x="1038" >
  <font-face 
    font-family="Calibri"
    font-weight="700"
    font-style="italic"
    font-stretch="normal"
    units-per-em="2048"
    panose-1="2 15 7 2 3 4 4 10 2 4"
    ascent="1536"
    descent="-512"
    x-height="23"
    cap-height="4"
    bbox="-186.823 -1527.31 1967.72 365.75"
    underline-thickness="186"
    underline-position="-86"
    slope="-11"
    unicode-range="U+0020-U+007E"
  />
    <missing-glyph />
    <glyph glyph-name="space" unicode=" " horiz-adv-x="463" 
 />
    <glyph glyph-name="space" unicode="&#xa0;" horiz-adv-x="463" 
 />
    <glyph glyph-name="A" unicode="A" horiz-adv-x="1241" 
d="M1126 -98c10 61 9 102 -54 102c-54 0 -170 15 -202 -17c-20 -87 -26 -190 -41 -282h-486l-134 254c-22 65 -150 47 -231 44c-62 -3 -32 -62 -10 -103l628 -1148c26 -76 177 -50 274 -50c51 0 80 6 87 53zM807 -497l-75 -550l-289 550h364z" />
    <glyph glyph-name="B" unicode="B" horiz-adv-x="1148" 
d="M389 -1294c321 0 718 -54 718 264c0 183 -104 284 -240 338c153 22 237 171 187 348c-65 229 -261 344 -562 344h-359c-54 0 -81 -25 -69 -83l226 -1128c8 -53 44 -83 99 -83zM605 -761c147 -1 231 -84 231 -220c0 -140 -171 -114 -311 -116l-68 336h148zM531 -201
c161 -2 261 -79 261 -230c0 -101 -80 -138 -199 -138h-175l-73 368h186z" />
    <glyph glyph-name="C" unicode="C" horiz-adv-x="1062" 
d="M568 21c-308 0 -472 -163 -472 -473c0 -324 134 -561 314 -722c153 -138 539 -203 716 -44c13 12 19 29 19 49c0 59 -16 167 -66 179c-29 -6 -50 -33 -78 -52c-70 -48 -226 -73 -321 -22c-188 101 -299 309 -299 581c0 177 82 279 257 281c118 2 198 -38 266 -81
c29 -18 71 -25 65 21c-12 92 -17 179 -95 214c-80 35 -185 69 -306 69z" />
    <glyph glyph-name="D" unicode="D" horiz-adv-x="1291" 
d="M701 -1294c355 -1 569 127 569 468c0 442 -204 718 -575 804c-152 35 -378 18 -565 22c-50 1 -77 -27 -66 -83l226 -1128c8 -53 43 -83 99 -83h312zM994 -795c0 -203 -113 -295 -329 -293h-137l-177 880c111 0 237 4 315 -26c213 -82 328 -278 328 -561z" />
    <glyph glyph-name="E" unicode="E" horiz-adv-x="999" 
d="M818 -206c45 11 19 96 10 134c-8 31 -18 72 -53 72h-650c-48 0 -71 -31 -61 -83l226 -1128c9 -51 44 -83 96 -83h644c46 5 21 93 12 131c-8 33 -19 75 -53 75h-462l-64 316h392c49 9 21 91 12 130c-7 31 -19 71 -52 71h-391l-74 365h468z" />
    <glyph glyph-name="F" unicode="F" horiz-adv-x="940" 
d="M992 -1294c42 2 26 63 20 98c-8 46 -16 107 -62 117h-423l-70 348h398c50 12 18 95 9 135c-8 33 -18 76 -53 76h-395l-96 483c-19 57 -132 45 -204 40c-32 -2 -67 -6 -60 -40l234 -1174c9 -51 44 -83 96 -83h606z" />
    <glyph glyph-name="G" unicode="G" horiz-adv-x="1305" 
d="M661 22c-352 -2 -568 -150 -568 -495c0 -346 157 -570 367 -720c194 -138 633 -170 832 -19c43 51 11 171 -22 212c-17 21 -34 9 -60 -8c-103 -70 -315 -128 -478 -68c-224 83 -358 274 -368 567c-8 238 175 343 415 301c32 -7 62 -17 89 -30l60 -299h-244
c-49 -11 -20 -96 -10 -135c7 -29 19 -64 49 -64h437c46 0 64 33 53 84l-104 518c-12 85 -95 93 -175 118c-75 24 -176 39 -273 38z" />
    <glyph glyph-name="H" unicode="H" horiz-adv-x="1292" 
d="M1064 -35c-19 56 -131 42 -203 39c-33 -1 -65 -7 -59 -39l104 -524h-484l-104 524c-19 56 -132 42 -204 39c-32 -2 -65 -7 -59 -39l245 -1224c18 -57 130 -39 202 -39c33 0 66 7 60 39l-95 476h485l94 -476c19 -56 131 -42 203 -39c33 2 66 7 60 39z" />
    <glyph glyph-name="I" unicode="I" horiz-adv-x="546" 
d="M319 -35c-19 56 -133 42 -205 39c-32 -1 -65 -7 -59 -39l245 -1224c19 -56 130 -42 202 -39c32 1 67 6 61 39z" />
    <glyph glyph-name="J" unicode="J" horiz-adv-x="678" 
d="M515 -344c-41 235 -182 405 -477 357c-62 -10 -125 -19 -111 -96c9 -53 16 -118 43 -153s61 14 94 22c50 12 117 3 140 -28s40 -69 49 -120l181 -898c20 -55 129 -38 202 -38c33 0 68 6 62 38z" />
    <glyph glyph-name="K" unicode="K" horiz-adv-x="1120" 
d="M1028 -1298c82 -4 238 -20 182 78c-9 13 -23 31 -42 52l-458 485l272 577c8 22 16 37 16 61c0 73 -132 49 -210 49c-40 0 -61 -13 -74 -43l-274 -613l-121 616c-19 57 -131 44 -203 40c-32 -2 -67 -7 -60 -40l244 -1223c18 -57 129 -39 202 -39c32 0 67 6 61 39l-110 553
l480 -549c21 -27 49 -41 95 -43z" />
    <glyph glyph-name="L" unicode="L" horiz-adv-x="866" 
d="M763 -217c49 12 18 98 9 139c-7 33 -17 78 -53 78h-593c-48 1 -72 -30 -62 -83l236 -1176c18 -57 130 -39 203 -39c33 0 66 7 60 39l-208 1042h408z" />
    <glyph glyph-name="M" unicode="M" horiz-adv-x="1790" 
d="M1563 -35c-15 57 -125 39 -194 39c-31 0 -61 -6 -55 -39l210 -1053h-2l-587 1052c-22 57 -178 47 -237 30c-20 -6 -28 -17 -30 -28l-152 -1055h-2l-211 1054c-15 57 -124 39 -193 39c-31 0 -61 -6 -55 -39l230 -1153c13 -62 48 -106 120 -106c127 0 287 -30 321 80
c6 20 10 43 14 70l125 770h5l444 -770c43 -83 86 -153 210 -150c76 2 166 -10 229 7c36 10 49 48 40 98z" />
    <glyph glyph-name="N" unicode="N" horiz-adv-x="1344" 
d="M1127 -92c-12 56 -49 94 -115 94c-78 0 -172 14 -210 -32c-27 -33 -40 -75 -57 -128l-191 -578c-15 -45 -27 -90 -40 -135c-13 -44 -21 -94 -38 -135c-7 53 -13 105 -23 156l-161 814c-21 59 -157 47 -221 31c-14 -3 -20 -14 -16 -31l233 -1164c9 -57 54 -94 113 -94
c84 0 188 -16 233 32c26 27 39 62 53 106l227 694c13 35 19 78 35 110l52 -297l123 -610c20 -58 153 -39 219 -29c13 5 21 12 18 29z" />
    <glyph glyph-name="O" unicode="O" horiz-adv-x="1369" 
d="M848 -1317c317 0 497 140 497 456c0 420 -176 722 -497 843c-75 27 -160 41 -255 41c-316 0 -498 -137 -498 -451c0 -427 178 -729 501 -850c74 -27 158 -39 252 -39zM373 -457c-1 175 80 267 256 263c246 -5 341 -188 401 -382c24 -78 36 -171 37 -260
c1 -173 -79 -269 -254 -265c-247 5 -343 189 -403 385c-24 78 -36 172 -37 259z" />
    <glyph glyph-name="P" unicode="P" horiz-adv-x="1090" 
d="M684 -1294c252 0 436 73 436 317c0 278 -156 438 -384 505c-89 26 -216 23 -335 23l-83 414c-20 55 -132 43 -204 39c-32 -2 -66 -6 -59 -39l233 -1165c10 -58 49 -93 113 -94h283zM562 -652c188 -4 281 -116 281 -295c0 -109 -82 -148 -199 -144h-116l-86 439h120z" />
    <glyph glyph-name="Q" unicode="Q" horiz-adv-x="1387" 
d="M1345 -861c0 326 -112 562 -288 723c63 67 125 113 209 141c73 24 25 140 6 191c-7 18 -18 35 -39 37c-172 -34 -290 -136 -382 -257c-71 32 -154 49 -258 49c-316 0 -498 -137 -498 -451c0 -426 178 -730 501 -850c73 -27 157 -39 252 -39c317 0 497 140 497 456z
M373 -457c-1 174 80 267 255 263c246 -5 342 -188 402 -382c24 -78 36 -171 37 -260c1 -173 -79 -269 -254 -265c-247 5 -343 189 -403 385c-24 78 -36 172 -37 259z" />
    <glyph glyph-name="R" unicode="R" horiz-adv-x="1153" 
d="M737 -1294c222 3 398 66 398 282c0 232 -132 359 -319 419c144 68 145 318 187 493c9 37 25 90 -21 98c-58 10 -173 15 -228 -2c-18 -6 -21 -18 -25 -36l-50 -287c-19 -112 -52 -202 -180 -202h-82l-99 494c-19 56 -132 43 -204 39c-32 -2 -66 -6 -59 -39l236 -1176
c8 -53 44 -83 99 -83h347zM581 -726c166 -2 267 -81 272 -237c4 -150 -173 -130 -324 -130l-73 367h125z" />
    <glyph glyph-name="S" unicode="S" horiz-adv-x="953" 
d="M358 -189c139 -3 239 -59 239 -192c0 -124 -127 -152 -209 -206c-106 -69 -209 -144 -209 -318c0 -207 128 -323 289 -381c149 -53 381 -38 472 44c46 42 6 157 -20 199c-33 29 -70 -17 -104 -29c-44 -16 -98 -41 -164 -40c-121 1 -200 59 -200 171c0 90 72 123 134 160
l78 46c108 66 213 143 213 316c0 222 -139 346 -313 408c-177 64 -447 33 -551 -65c-33 -56 -1 -162 29 -203c15 -21 36 -9 60 5c66 40 142 87 256 85z" />
    <glyph glyph-name="T" unicode="T" horiz-adv-x="1014" 
d="M1130 -1294c47 13 20 98 10 138c-8 33 -20 77 -54 77h-325l-208 1043c-27 60 -171 46 -243 31c-15 -3 -24 -14 -21 -31l208 -1043h-322c-50 -11 -20 -98 -11 -139c7 -32 20 -76 54 -76h912z" />
    <glyph glyph-name="U" unicode="U" horiz-adv-x="1337" 
d="M1199 -477c-64 308 -253 500 -618 500c-247 0 -411 -81 -447 -289c-11 -64 -7 -139 10 -224l154 -768c19 -56 131 -44 203 -39c32 2 67 6 60 39l-154 768c-40 179 25 302 204 297c197 -5 296 -123 330 -291l155 -774c18 -56 130 -44 200 -39c31 2 65 7 59 39z" />
    <glyph glyph-name="V" unicode="V" horiz-adv-x="1211" 
d="M702 -46c-25 77 -177 50 -275 50c-52 0 -80 -6 -86 -53l-158 -1169c-9 -52 2 -80 53 -80c70 0 210 -32 219 49l110 996h2l503 -1000c22 -66 151 -47 233 -44c65 2 35 62 12 104z" />
    <glyph glyph-name="W" unicode="W" horiz-adv-x="1857" 
d="M336 -1300c65 0 129 -11 131 58l26 987h2l437 -986c17 -78 146 -57 235 -57c44 0 62 14 64 59l50 984h2l425 -998c18 -66 143 -47 222 -43c60 3 35 60 16 103l-524 1128c-22 94 -177 69 -286 69c-52 0 -82 -11 -85 -62l-47 -829h-2l-359 822c-18 97 -178 69 -285 69
c-58 0 -85 -13 -89 -72l-70 -1138c-4 -59 4 -89 59 -92c18 -2 45 -2 78 -2z" />
    <glyph glyph-name="X" unicode="X" horiz-adv-x="1128" 
d="M794 -667l199 565c21 56 20 105 -45 105s-199 25 -220 -38l-157 -470l-332 470c-31 58 -165 41 -248 38c-33 -1 -53 -11 -39 -46c6 -14 18 -33 35 -56l427 -570l-181 -526c-21 -55 -19 -102 45 -102c68 0 202 -25 224 43l137 422l302 -427c28 -58 161 -41 241 -38
c34 1 54 10 41 46c-6 14 -17 33 -34 56z" />
    <glyph glyph-name="Y" unicode="Y" horiz-adv-x="1064" 
d="M668 -491l-90 456c-21 55 -132 43 -205 39c-33 -2 -65 -7 -59 -39l90 -456l-212 -705c-19 -51 -26 -101 38 -101c66 0 199 -27 219 44l87 311c10 37 17 73 26 106s12 74 23 106l58 -106s41 -69 64 -104l207 -316c25 -63 165 -44 244 -40c33 2 55 11 40 46
c-7 14 -19 32 -34 54z" />
    <glyph glyph-name="Z" unicode="Z" horiz-adv-x="979" 
d="M42 0c-113 3 -65 -168 -26 -219l60 -79l646 -787h-486c-53 -2 -29 -96 -18 -137c9 -33 22 -72 60 -72h718c109 -1 50 164 20 218c-16 28 -35 51 -59 80l-643 785h532c48 9 20 97 11 137c-7 32 -18 74 -52 74h-763z" />
    <glyph glyph-name="a" unicode="a" horiz-adv-x="1081" 
d="M553 -983c125 0 201 56 259 135c14 -41 2 -97 48 -109c39 -10 159 -20 185 13c3 5 3 10 2 17l-179 894c-13 53 -142 44 -202 31c-15 -3 -20 -13 -17 -31l28 -143c-60 106 -176 194 -338 199c-379 11 -297 -554 -164 -769c78 -126 182 -237 378 -237zM348 -526
c-30 111 -70 336 77 336c126 0 196 -109 247 -204c41 -76 51 -171 72 -265c-44 -82 -149 -145 -253 -90c-76 40 -118 131 -143 223z" />
    <glyph glyph-name="b" unicode="b" horiz-adv-x="1081" 
d="M748 -983c379 -11 296 558 163 772c-77 124 -184 234 -377 234c-126 0 -204 -52 -260 -133c-13 41 -1 94 -46 106c-41 11 -200 28 -188 -30l263 -1315c21 -61 165 -47 231 -31c15 4 23 13 19 31l-82 407c-12 48 -27 97 -43 140c62 -95 169 -177 320 -181zM343 -298
c43 81 150 145 250 88c119 -67 172 -226 172 -408c0 -81 -21 -151 -103 -151c-128 0 -195 110 -247 206c-42 77 -51 171 -72 265z" />
    <glyph glyph-name="c" unicode="c" horiz-adv-x="843" 
d="M400 22c-227 0 -341 -116 -341 -342c0 -306 129 -535 357 -630c136 -57 372 -40 438 61c11 61 -10 135 -38 173c-31 42 -70 -3 -94 -22c-47 -37 -159 -56 -224 -17c-120 72 -179 224 -179 403c0 105 43 164 147 165c98 1 159 -40 214 -78c27 -18 59 -22 56 21
c-9 91 -22 174 -94 208c-64 30 -146 58 -242 58z" />
    <glyph glyph-name="d" unicode="d" horiz-adv-x="1081" 
d="M553 -983c110 0 185 46 234 108l95 -471c17 -56 126 -45 194 -40c31 2 61 8 55 40l-262 1313c-13 53 -142 44 -202 31c-15 -3 -20 -13 -17 -31l27 -143c-61 106 -176 195 -338 199c-379 10 -297 -558 -163 -772c78 -124 183 -234 377 -234zM348 -530
c-31 111 -69 340 77 340c125 0 196 -107 247 -202c41 -77 51 -172 72 -266c-44 -81 -148 -146 -252 -92c-76 40 -118 128 -144 220z" />
    <glyph glyph-name="e" unicode="e" horiz-adv-x="1006" 
d="M622 -983c196 0 347 73 347 253c0 186 -140 255 -307 292c-91 21 -222 23 -344 22c-5 27 -8 58 -8 87c1 113 58 163 177 163c127 0 221 -37 314 -61c42 6 18 77 11 111c-11 49 -27 77 -78 94c-78 26 -184 45 -292 45c-242 1 -388 -95 -383 -336c6 -318 137 -545 376 -639
c55 -21 117 -31 187 -31zM707 -658c47 -74 -16 -151 -108 -146c-148 8 -208 109 -245 227c147 1 299 4 353 -81z" />
    <glyph glyph-name="f" unicode="f" horiz-adv-x="648" 
d="M121 -756c-48 -9 -20 -99 -10 -138c7 -30 20 -66 53 -66h110c35 -257 132 -470 441 -438c59 6 129 9 115 86c-8 44 -11 94 -32 124c-30 26 -66 -10 -113 -10c-133 0 -136 128 -160 238h162c51 8 21 99 10 137c-9 29 -18 67 -50 67h-164l-157 784
c-38 223 -178 364 -454 329c-90 -11 -45 -111 -30 -167c4 -16 12 -32 28 -34c59 12 133 8 162 -32c24 -33 39 -75 50 -128l151 -752h-112z" />
    <glyph glyph-name="g" unicode="g" horiz-adv-x="1081" 
d="M553 -983c125 0 201 56 259 135c14 -41 2 -97 48 -109c39 -10 159 -20 185 13c3 5 3 10 2 17l-187 929c-46 248 -215 363 -513 363c-104 0 -199 -16 -265 -48c-60 -29 -14 -153 15 -189c32 -25 63 6 97 17c87 28 261 42 340 -7c40 -25 64 -60 75 -115
c14 -71 30 -128 50 -181c-61 97 -169 176 -320 181c-380 12 -297 -557 -163 -771c78 -124 183 -235 377 -235zM348 -527c-30 112 -69 337 77 337c126 0 196 -109 247 -205c41 -77 51 -171 72 -265c-43 -81 -149 -145 -252 -90c-76 41 -119 130 -144 223z" />
    <glyph glyph-name="h" unicode="h" horiz-adv-x="1080" 
d="M749 -983c222 -11 277 185 234 398l-110 551c-18 54 -126 42 -195 38c-31 -2 -62 -7 -56 -38l107 -535c16 -79 24 -204 -73 -196c-122 10 -190 109 -240 202c-21 40 -35 82 -44 127l-81 402c-18 54 -126 42 -195 38c-31 -2 -62 -6 -56 -38l263 -1315
c17 -56 126 -45 195 -40c31 2 61 8 55 40l-82 409c-12 47 -27 96 -43 138c64 -95 169 -174 321 -181z" />
    <glyph glyph-name="i" unicode="i" horiz-adv-x="503" 
d="M500 -1351c80 13 52 131 30 187c-26 69 -134 77 -222 64c-80 -12 -52 -130 -30 -187c27 -68 134 -79 222 -64zM291 -34c-18 54 -126 42 -195 38c-31 -2 -62 -6 -56 -38l177 -890c23 -60 164 -47 231 -30c15 4 24 12 20 30z" />
    <glyph glyph-name="j" unicode="j" horiz-adv-x="523" 
d="M519 -1351c81 13 51 132 30 187c-27 69 -133 77 -221 64c-80 -12 -52 -131 -30 -187c27 -68 133 -79 221 -64zM-148 162c25 -24 77 7 116 -13c51 -26 70 -77 83 -145l186 -928c23 -60 164 -47 231 -30c15 4 24 12 20 30l-188 937c-41 199 -119 351 -354 352
c-48 1 -101 -8 -124 -22c-24 -53 6 -140 30 -181z" />
    <glyph glyph-name="k" unicode="k" horiz-adv-x="983" 
d="M826 -964c78 -2 232 -22 176 72c-9 14 -23 33 -45 54l-315 297l205 430c10 24 18 45 18 70c0 67 -127 45 -201 45c-37 0 -55 -12 -68 -40l-211 -470l-94 472c-24 58 -163 43 -232 30c-15 -3 -22 -12 -20 -29l264 -1316c17 -56 126 -45 195 -40c31 2 61 8 55 40l-156 783
l334 -357c20 -26 50 -40 95 -41z" />
    <glyph glyph-name="l" unicode="l" horiz-adv-x="503" 
d="M291 -34c-18 54 -127 41 -195 38c-31 -2 -62 -7 -56 -38l263 -1315c17 -56 126 -45 195 -40c31 2 61 8 55 40z" />
    <glyph glyph-name="m" unicode="m" horiz-adv-x="1646" 
d="M1316 -983c223 -12 275 186 233 398l-110 551c-19 54 -125 42 -195 38c-31 -2 -62 -6 -56 -38l114 -580c9 -74 0 -158 -77 -151c-119 10 -185 109 -235 201c-21 39 -35 81 -44 126l-81 404c-18 54 -126 42 -195 38c-31 -2 -62 -7 -56 -38l114 -582
c9 -75 -1 -155 -77 -149c-119 10 -185 109 -235 201c-21 39 -35 81 -44 126l-81 404c-18 54 -126 42 -195 38c-31 -2 -62 -6 -56 -38l179 -893c16 -55 138 -43 196 -29c13 3 19 13 16 29l-29 147c69 -103 176 -203 341 -203c144 0 218 73 231 203c72 -102 177 -194 342 -203
z" />
    <glyph glyph-name="n" unicode="n" horiz-adv-x="1080" 
d="M749 -983c221 -10 277 186 234 398l-111 551c-18 54 -125 41 -194 38c-31 -2 -63 -7 -57 -38l108 -535c17 -80 22 -204 -73 -196c-121 10 -189 109 -240 201c-21 39 -35 81 -44 126l-81 404c-18 54 -126 42 -195 38c-31 -2 -62 -6 -56 -38l179 -893
c16 -55 138 -43 196 -29c13 3 19 13 16 29l-29 147c69 -105 179 -196 347 -203z" />
    <glyph glyph-name="o" unicode="o" horiz-adv-x="1080" 
d="M630 -983c251 0 394 110 394 357c0 318 -142 534 -385 621c-54 20 -116 28 -185 28c-251 0 -394 -110 -394 -357c0 -317 141 -533 385 -621c55 -19 116 -28 185 -28zM349 -545c-48 146 -60 384 132 369c187 -14 245 -171 276 -339c26 -143 -3 -278 -154 -270
c-153 8 -214 120 -254 240z" />
    <glyph glyph-name="p" unicode="p" horiz-adv-x="1081" 
d="M748 -983c379 -12 296 556 163 771c-78 125 -183 235 -377 235c-111 0 -184 -46 -235 -106l-79 403c-22 61 -165 49 -232 32c-15 -4 -23 -14 -19 -32l250 -1247c13 -54 142 -43 201 -29c14 3 21 12 18 29l-28 145c59 -108 176 -196 338 -201zM343 -300
c43 81 150 148 251 90c119 -68 171 -229 171 -411c0 -83 -21 -149 -103 -149c-127 0 -195 109 -247 204c-42 77 -51 172 -72 266z" />
    <glyph glyph-name="q" unicode="q" horiz-adv-x="1081" 
d="M553 -983c125 0 201 56 259 135c14 -42 3 -97 48 -110c39 -11 160 -20 185 14c3 5 3 10 2 17l-249 1247c-22 61 -164 49 -231 32c-15 -4 -24 -15 -20 -32l69 -336l43 -140c-62 95 -170 174 -320 179c-378 13 -298 -551 -165 -767c78 -127 183 -239 379 -239zM346 -521
c-30 112 -63 331 79 331c126 0 196 -109 247 -205c41 -77 51 -171 72 -265c-44 -82 -151 -146 -254 -89c-77 42 -119 133 -144 228z" />
    <glyph glyph-name="r" unicode="r" horiz-adv-x="721" 
d="M403 -785c63 -110 182 -238 355 -183c48 15 8 98 4 144c-11 37 -17 87 -51 98c-55 -14 -111 -36 -165 5c-83 62 -150 164 -175 286l-80 401c-18 54 -126 42 -195 38c-31 -2 -62 -6 -56 -38l178 -893c17 -55 139 -43 197 -29c13 3 19 13 16 29z" />
    <glyph glyph-name="s" unicode="s" horiz-adv-x="807" 
d="M456 -282c-1 -55 -45 -76 -86 -98c-111 -58 -249 -99 -247 -268c2 -168 101 -264 232 -310c124 -44 328 -30 409 37c27 41 -3 123 -20 159c-6 12 -13 17 -21 17c-66 -18 -117 -63 -210 -60c-84 3 -145 35 -145 115c0 82 109 96 171 130c86 47 169 100 170 231
c-1 295 -305 407 -597 328c-57 -15 -119 -31 -108 -110c6 -43 15 -91 36 -119c32 -25 59 20 90 30c90 56 331 70 326 -82z" />
    <glyph glyph-name="t" unicode="t" horiz-adv-x="710" 
d="M712 -960c61 15 15 130 -2 170c-7 16 -18 34 -37 34h-195l-90 454c-10 67 9 111 77 111c48 0 72 -16 109 -23c38 13 13 89 4 122c-10 39 -21 71 -58 85c-40 16 -95 23 -151 27c-205 13 -269 -142 -229 -341l87 -435h-108c-36 -2 -26 -50 -21 -86c6 -48 17 -118 63 -118
h107l40 -199c17 -56 125 -43 194 -39c32 2 63 8 57 39l-40 199h193z" />
    <glyph glyph-name="u" unicode="u" horiz-adv-x="1080" 
d="M358 -391c-17 80 -23 205 72 197c124 -11 191 -113 242 -210c22 -42 37 -87 47 -137l76 -386c18 -54 126 -37 195 -37c31 0 62 5 56 37l-179 894c-16 55 -138 43 -196 29c-13 -3 -18 -12 -15 -29l27 -145c-68 104 -178 193 -343 201c-224 11 -280 -182 -237 -397
l110 -553c18 -54 126 -40 195 -37c31 1 62 6 56 37z" />
    <glyph glyph-name="v" unicode="v" horiz-adv-x="961" 
d="M111 -880c-23 -112 100 -84 192 -84c34 0 53 9 57 41l76 655v25l5 -9c132 -197 222 -419 297 -671c18 -59 128 -41 202 -41c42 0 68 13 54 58c-102 331 -260 617 -442 870c-40 55 -171 43 -255 40c-46 -2 -73 -9 -79 -52z" />
    <glyph glyph-name="w" unicode="w" horiz-adv-x="1526" 
d="M259 -966c58 0 115 -9 118 43l42 668l300 -668c21 -63 158 -46 227 -33c16 3 22 13 24 29l53 669l81 -153c25 -52 49 -106 73 -163c47 -110 93 -231 126 -349c17 -60 126 -41 199 -41c30 0 54 3 56 31c-15 107 -57 184 -94 277c-89 225 -208 432 -337 620
c-36 53 -152 44 -234 40c-41 -2 -65 -12 -68 -52l-46 -550l-246 548c-22 76 -159 54 -253 54c-45 0 -74 -10 -77 -52l-79 -853c-2 -72 63 -65 135 -65z" />
    <glyph glyph-name="x" unicode="x" horiz-adv-x="941" 
d="M660 -496l160 444c21 83 -121 56 -202 56c-33 0 -52 -7 -61 -33l-108 -315l-226 316c-31 50 -150 32 -230 32c-43 0 -61 -22 -36 -54l339 -444l-149 -412c-21 -69 58 -60 129 -60c51 0 92 -4 118 16l111 314l215 -298c28 -46 141 -29 212 -30c46 0 64 18 38 53z" />
    <glyph glyph-name="y" unicode="y" horiz-adv-x="963" 
d="M816 -964c71 0 209 -28 179 64c-109 329 -252 607 -438 870l-244 346c-36 55 -158 49 -243 44c-43 -2 -61 -27 -35 -61l227 -299l-151 -885c-22 -105 106 -79 195 -79c38 0 54 11 59 46l92 625h2c124 -184 214 -397 281 -634c8 -30 39 -37 76 -37z" />
    <glyph glyph-name="z" unicode="z" horiz-adv-x="814" 
d="M776 -960c68 3 26 100 17 148c-8 42 -29 62 -56 95l-422 515h340c59 15 16 129 -1 168c-7 17 -19 34 -39 34h-589c-77 -11 -23 -145 -4 -188c9 -20 24 -35 41 -54l426 -516h-304c-64 -23 -14 -163 18 -193c7 -6 14 -9 22 -9h551z" />
    <glyph glyph-name="grave" unicode="`" horiz-adv-x="615" 
d="M654 -1135c29 50 -27 52 -81 52c-56 0 -93 -5 -117 -35l-183 -232c-25 -30 8 -48 41 -50c66 -4 176 -15 206 36zM0 -960z" />
    <glyph glyph-name="exclam" unicode="!" horiz-adv-x="667" 
d="M472 -424c-18 58 -145 50 -203 32c-13 -4 -20 -15 -17 -32l156 -908c14 -67 136 -54 212 -49c35 2 68 10 59 49zM331 -280c73 0 125 16 122 86c-6 119 -40 209 -178 209c-72 0 -123 -14 -120 -84c5 -119 41 -211 176 -211z" />
    <glyph glyph-name="question" unicode="?" horiz-adv-x="949" 
d="M496 -1377c272 -35 477 68 477 328c0 263 -151 414 -401 441l-46 191c-20 48 -144 41 -206 29c-15 -3 -22 -11 -19 -29l37 -236c10 -66 33 -105 110 -105c164 0 257 -98 257 -252c0 -113 -65 -173 -181 -174c-92 -1 -161 27 -216 60c-33 20 -54 11 -50 -33
c7 -78 15 -153 83 -177c44 -15 99 -36 155 -43zM388 -280c73 0 124 16 121 86c-6 118 -40 209 -177 209c-72 0 -123 -14 -120 -84c5 -119 41 -211 176 -211z" />
    <glyph glyph-name="comma" unicode="," horiz-adv-x="528" 
d="M183 -286c73 -7 189 -20 186 65c-5 119 -54 212 -119 284l-172 192c-29 41 -139 47 -196 25c-12 -12 -4 -26 5 -40l176 -276c29 -94 10 -240 120 -250z" />
    <glyph glyph-name="semicolon" unicode=";" horiz-adv-x="565" 
d="M464 -934c82 21 42 154 22 214c-24 73 -127 92 -216 72c-84 -19 -47 -158 -24 -217c23 -57 69 -79 150 -78c28 0 51 5 68 9zM206 -286c72 -8 188 -19 185 65c-5 118 -57 213 -122 284l-171 188c-27 38 -106 40 -168 35c-33 -3 -28 -27 -14 -49l174 -273
c30 -92 10 -239 116 -250z" />
    <glyph glyph-name="colon" unicode=":" horiz-adv-x="565" 
d="M461 -935c84 19 45 154 25 215c-24 72 -127 92 -216 72c-83 -19 -44 -152 -24 -214c24 -74 125 -93 215 -73zM330 -281c82 18 47 155 26 215c-25 72 -128 91 -218 72c-83 -17 -43 -154 -24 -214c23 -74 126 -93 216 -73z" />
    <glyph glyph-name="period" unicode="." horiz-adv-x="547" 
d="M236 -296c95 0 141 40 123 137c-13 74 -29 144 -99 163c-21 6 -47 9 -80 9c-79 1 -131 -20 -127 -98c7 -122 38 -211 183 -211z" />
    <glyph glyph-name="slash" unicode="/" horiz-adv-x="889" 
d="M118 259c-25 54 -139 45 -210 40c-41 -3 -63 -25 -42 -62l934 -1679c24 -56 137 -46 208 -41c41 3 64 24 43 62z" />
    <glyph glyph-name="bar" unicode="|" horiz-adv-x="973" 
d="M446 323c-15 54 -119 43 -184 39c-29 -2 -58 -8 -52 -39l345 -1726c20 -60 156 -48 219 -31c15 4 21 14 18 31z" />
    <glyph glyph-name="backslash" unicode="\" horiz-adv-x="870" 
d="M720 218c30 100 -98 73 -180 73c-34 0 -54 -5 -59 -36l-257 -1651c-31 -100 97 -73 180 -73c34 0 53 6 58 36z" />
    <glyph glyph-name="hyphen" unicode="-" horiz-adv-x="627" 
d="M549 -605c59 4 29 95 17 135c-10 31 -22 71 -58 71h-416c-57 -3 -31 -98 -18 -139c9 -31 21 -67 59 -67h416z" />
    <glyph glyph-name="hyphen" unicode="&#x2010;" horiz-adv-x="627" 
d="M549 -605c59 4 29 95 17 135c-10 31 -22 71 -58 71h-416c-57 -3 -31 -98 -18 -139c9 -31 21 -67 59 -67h416z" />
    <glyph glyph-name="hyphen" unicode="&#xad;" horiz-adv-x="627" 
d="M549 -605c59 4 29 95 17 135c-10 31 -22 71 -58 71h-416c-57 -3 -31 -98 -18 -139c9 -31 21 -67 59 -67h416z" />
    <glyph glyph-name="underscore" unicode="_" horiz-adv-x="1020" 
d="M-131 365c-65 -18 -13 -147 14 -177c7 -6 14 -9 23 -9h949c23 0 30 17 30 41c0 60 -12 133 -66 145h-950z" />
    <glyph glyph-name="parenleft" unicode="(" horiz-adv-x="638" 
d="M720 -1368c-265 410 -475 1007 -343 1658c17 86 -113 66 -185 56c-14 -2 -21 -10 -25 -22c-103 -307 -99 -752 6 -1067c78 -234 183 -443 318 -647c28 -43 126 -34 191 -30c34 3 58 21 38 52z" />
    <glyph glyph-name="parenright" unicode=")" horiz-adv-x="638" 
d="M138 344c-57 11 -181 25 -200 -24c0 -7 3 -15 8 -24c210 -346 386 -728 386 -1249c0 -144 -16 -289 -44 -408c-18 -78 84 -61 156 -61c27 0 48 6 55 26c103 306 99 753 -6 1068c-78 233 -178 445 -317 646c-9 14 -19 22 -38 26z" />
    <glyph glyph-name="bracketleft" unicode="[" horiz-adv-x="665" 
d="M418 158c54 24 8 142 -16 172c-6 6 -12 8 -19 8h-311c-48 0 -70 -32 -60 -84l318 -1586c8 -52 43 -83 95 -83h309c49 22 6 143 -17 171c-5 6 -12 9 -19 9h-152l-279 1393h151z" />
    <glyph glyph-name="bracketright" unicode="]" horiz-adv-x="665" 
d="M252 -1272c0 -58 9 -131 61 -143h310c48 -1 70 32 60 83l-318 1586c-9 52 -41 84 -94 84h-309c-19 -1 -24 -16 -24 -39c0 -56 10 -128 60 -141h150l279 -1393h-150c-21 0 -25 -15 -25 -37z" />
    <glyph glyph-name="braceleft" unicode="{" horiz-adv-x="704" 
d="M697 -1438c52 1 119 -5 116 52c-2 47 -18 97 -38 126s-74 6 -105 24c-56 32 -71 102 -85 182c-40 226 -85 445 -303 490c127 26 173 163 142 316l-43 213c-9 64 -40 181 41 181c39 0 81 -4 77 37c-5 46 -16 105 -39 134c-24 19 -69 21 -113 22
c-177 6 -232 -118 -211 -297c15 -127 65 -241 65 -373c0 -82 -37 -129 -106 -143c-56 -25 -12 -145 11 -180c23 -20 63 -17 93 -34c155 -88 129 -381 202 -548c53 -121 128 -205 296 -202z" />
    <glyph glyph-name="braceright" unicode="}" horiz-adv-x="704" 
d="M76 339c-52 0 -122 5 -116 -53c6 -64 11 -140 95 -140c106 0 113 -97 132 -191c48 -237 76 -487 312 -533c-128 -25 -171 -165 -142 -317c18 -92 41 -177 47 -278c4 -64 -30 -72 -92 -72c-70 0 -28 -100 -16 -143c14 -49 69 -47 129 -50c176 -6 230 116 211 296
c-13 127 -74 247 -50 382c9 51 46 82 100 92c58 25 11 144 -11 180c-43 26 -101 25 -136 67c-182 219 -25 760 -463 760z" />
    <glyph glyph-name="asterisk" unicode="*" horiz-adv-x="1020" 
d="M590 -1382c-1 -58 145 -49 183 -32c14 6 17 19 12 32l-92 251l231 -161c12 -9 24 -9 37 1c25 22 91 151 30 173l-256 91l216 94c12 4 15 14 13 29c-4 27 -81 125 -102 134c-15 6 -26 6 -35 -3l-168 -158l-11 251c4 59 -144 48 -182 32c-14 -6 -17 -18 -12 -32l90 -251
l-223 158c-13 10 -26 11 -39 1c-25 -21 -92 -150 -31 -172l254 -93l-213 -88c-25 -9 -19 -42 -5 -65c20 -35 58 -82 91 -102c15 -9 27 -5 37 5l164 156z" />
    <glyph glyph-name="asciicircum" unicode="^" horiz-adv-x="1020" 
d="M816 -514c-38 0 -62 -10 -69 -42l-112 -541l-5 1l-320 540c-29 56 -145 45 -224 42c-57 -2 -34 -47 -12 -82l421 -656c43 -66 206 -61 295 -38c23 6 38 17 43 38l162 656c40 112 -95 82 -179 82z" />
    <glyph glyph-name="asciitilde" unicode="~" horiz-adv-x="1020" 
d="M919 -1138c44 -9 158 -24 158 32c0 160 -70 269 -179 323c-90 44 -227 21 -286 -27c-49 -40 -78 -99 -128 -135c-41 -30 -109 -10 -128 25c-15 28 -26 63 -31 105c-4 34 -46 35 -94 35c-54 0 -88 -2 -88 -39c0 -205 97 -342 297 -347c138 -4 201 71 259 148
c27 35 79 71 131 42c42 -23 61 -73 64 -137c1 -11 9 -21 25 -25z" />
    <glyph glyph-name="quotesingle" unicode="'" horiz-adv-x="478" 
d="M421 -910c-9 53 -123 50 -173 31c-12 -4 -17 -15 -14 -31l67 -447c7 -58 166 -46 214 -31c17 5 22 17 19 31z" />
    <glyph glyph-name="quotedbl" unicode="&#x22;" horiz-adv-x="898" 
d="M796 -910c-11 54 -120 49 -168 31c-12 -4 -16 -15 -14 -31l67 -447c12 -60 163 -45 211 -31c16 5 22 17 18 31zM415 -910c-10 54 -120 49 -168 31c-11 -4 -16 -15 -13 -31l67 -447c11 -61 163 -43 211 -31c15 7 20 17 17 31z" />
    <glyph glyph-name="ampersand" unicode="&#x26;" horiz-adv-x="1443" 
d="M1187 20c-106 0 -164 -76 -238 -131c-171 129 -561 193 -771 52c-97 -65 -155 -213 -104 -359c54 -155 179 -241 327 -317c-43 -80 -87 -160 -87 -269c0 -254 192 -355 462 -355c178 0 315 37 368 151c54 116 -2 242 -68 311c-84 87 -193 152 -327 214
c65 98 137 183 216 266c53 -66 100 -156 113 -249c8 -55 64 -50 126 -50c38 0 66 2 84 6s28 12 28 24c0 167 -93 314 -185 414c50 41 78 84 140 84c59 0 29 73 22 112c-8 42 -16 79 -59 89c-15 3 -30 7 -47 7zM762 -1164c-139 -4 -215 97 -174 228c11 35 27 67 45 101
c90 -42 157 -77 212 -133c31 -32 47 -59 47 -109c0 -65 -57 -85 -130 -87zM330 -326c0 205 340 160 444 72l-70 -74l-66 -76c-44 -52 -86 -106 -124 -163c-91 54 -184 109 -184 241zM0 -1294z" />
    <glyph glyph-name="at" unicode="@" horiz-adv-x="1840" 
d="M1119 -1341c376 0 636 133 636 494c0 307 -117 554 -335 661c-50 24 -108 35 -173 35c-125 0 -208 -54 -215 -174c-71 93 -168 168 -319 174c-318 13 -222 -442 -114 -607c73 -112 168 -219 345 -219c114 0 165 58 213 129c16 -37 12 -91 51 -106c31 -12 171 -26 155 27
l-136 431c-28 93 -34 160 53 160c107 0 153 -98 189 -182c38 -87 63 -195 63 -311c0 -249 -181 -323 -444 -323c-451 0 -648 275 -733 644c-15 70 -22 142 -23 212c-3 276 179 362 458 362c147 0 266 -32 374 -58c47 6 20 80 11 114c-13 48 -20 76 -75 91
c-91 25 -214 42 -338 42c-399 0 -650 -142 -650 -533c0 -357 134 -625 325 -812c155 -153 374 -251 682 -251zM744 -576c-27 75 -59 238 48 238c96 0 157 -90 205 -158c38 -56 52 -123 74 -192c-27 -56 -54 -103 -122 -103c-125 0 -169 117 -205 215zM0 -1294z" />
    <glyph glyph-name="dollar" unicode="$" 
d="M681 -1097c-129 2 -218 52 -218 173c0 89 83 116 151 146l88 39c121 56 239 124 239 298c0 298 -219 415 -510 440l-65 214c-9 47 -127 38 -170 21c-13 -5 -14 -18 -10 -34l63 -205c-88 -15 -177 -37 -221 -89c-21 -60 5 -147 34 -188c14 -19 30 -9 52 4
c64 41 147 76 262 74c162 -2 290 -48 290 -193c0 -125 -145 -141 -238 -187c-119 -59 -237 -121 -237 -295c0 -266 187 -388 445 -414l60 -200c16 -47 127 -37 172 -21c14 5 14 19 9 35l-57 193c74 14 154 37 191 84c12 58 -7 135 -33 176c-12 20 -28 10 -50 -2
c-63 -35 -142 -71 -247 -69z" />
    <glyph glyph-name="numbersign" unicode="#" horiz-adv-x="1020" 
d="M157 -843c0 -51 14 -118 60 -128h121l93 -292c18 -51 136 -41 191 -27c10 6 13 13 9 26l-94 293h222l94 -292c12 -49 136 -42 189 -27c10 6 14 13 10 26l-94 293c47 7 127 -24 122 39c-4 52 -14 133 -64 133h-111l-92 284c49 6 131 -23 125 39c-5 52 -13 133 -64 133
h-117l-99 312c-14 49 -135 42 -191 28c-11 -6 -13 -13 -9 -27l101 -313h-224l-100 313c-14 46 -103 37 -160 34c-25 -1 -48 -8 -39 -34l101 -313c-52 -7 -128 26 -122 -43c4 -51 12 -129 60 -129h117l92 -284h-99c-23 -1 -28 -17 -28 -44zM482 -799l-93 284h225l92 -284
h-224z" />
    <glyph glyph-name="zero" unicode="0" 
d="M681 -1317c300 0 396 204 361 509c-32 278 -101 539 -255 696c-81 83 -194 135 -358 135c-298 0 -396 -205 -361 -509c31 -278 103 -537 256 -696c80 -83 194 -135 357 -135zM344 -574c-24 159 -64 394 121 388c158 -5 197 -135 239 -260c47 -139 83 -305 83 -476
c0 -120 -31 -187 -142 -187c-157 0 -195 136 -239 261c-29 82 -47 183 -62 274z" />
    <glyph glyph-name="one" unicode="1" 
d="M853 -203c47 11 19 96 10 134c-7 29 -19 69 -51 69h-715c-60 -27 -9 -160 19 -193c7 -7 14 -10 23 -10h240l166 -831l-232 115c-29 17 -68 21 -65 -26c5 -65 15 -140 59 -165l332 -186c51 -10 147 -11 199 0c14 3 18 9 15 24l-213 1069h213z" />
    <glyph glyph-name="two" unicode="2" 
d="M859 -213c69 26 14 165 -15 203c-6 7 -13 10 -22 10h-744c-115 9 -60 -154 -26 -212c12 -21 29 -40 49 -58l305 -267c107 -100 203 -189 261 -327c12 -31 17 -61 18 -97c5 -118 -132 -136 -237 -103c-71 22 -131 62 -193 83c-55 -30 -11 -156 9 -201
c22 -51 89 -69 150 -92c63 -24 149 -43 234 -43c246 0 399 125 354 373c-36 194 -159 307 -284 430c-47 46 -104 92 -168 146l-184 155h493z" />
    <glyph glyph-name="three" unicode="3" 
d="M699 -670c174 14 267 155 223 345c-65 278 -387 398 -736 327c-51 -11 -97 -30 -135 -52c-61 -35 -22 -164 5 -212c16 -17 27 -8 50 4c63 36 144 72 250 71c160 -3 275 -74 275 -223c0 -164 -184 -154 -357 -154c-72 0 -26 -120 -8 -160c7 -16 21 -33 42 -33
c219 0 397 -37 397 -230c0 -83 -52 -122 -148 -122c-123 0 -210 72 -299 102c-41 -9 -20 -78 -12 -115c12 -58 29 -88 82 -115c81 -41 193 -80 318 -80c207 0 352 73 352 273c0 207 -127 325 -299 371v3z" />
    <glyph glyph-name="four" unicode="4" 
d="M959 -478c59 32 8 164 -21 200c-30 21 -91 5 -136 10l-47 234c-18 54 -127 41 -196 38c-31 -2 -63 -7 -57 -38l46 -234h-493c-77 2 -38 -102 -27 -157c9 -46 26 -95 50 -127l546 -713c52 -48 190 -37 286 -33c44 2 87 4 91 41l-156 779h114zM707 -1064h-2l-451 586h337z
" />
    <glyph glyph-name="five" unicode="5" 
d="M657 -459c0 -186 -268 -130 -431 -130c-43 0 -51 -19 -41 -68l112 -562c10 -48 28 -75 80 -75h613c44 3 28 71 20 107c-10 47 -19 107 -65 118h-460l-55 277c271 -29 516 34 511 296c-6 285 -169 436 -407 498c-156 41 -370 17 -482 -42c-54 -28 -16 -132 -2 -182
c9 -31 29 -50 65 -27c56 36 135 63 233 62c187 -3 309 -91 309 -272z" />
    <glyph glyph-name="six" unicode="6" 
d="M662 -815c238 0 352 151 304 391c-53 264 -212 442 -531 447c-276 4 -377 -176 -348 -460c40 -392 164 -723 479 -845c122 -47 321 -39 438 2c74 26 29 153 0 196c-5 7 -12 10 -19 10c-67 -14 -124 -44 -214 -41c-235 7 -323 175 -375 367c70 -38 157 -67 266 -67z
M361 -549c-30 150 -62 379 116 370c148 -8 203 -123 232 -250c25 -110 -19 -190 -132 -186c-90 3 -157 32 -216 66z" />
    <glyph glyph-name="seven" unicode="7" 
d="M1057 -1294c77 -5 45 88 35 141c-9 47 -29 93 -53 131l-623 986c-33 58 -168 41 -250 38c-45 -2 -74 -20 -48 -59l659 -1009h-537c-50 -13 -20 -107 -9 -149c9 -33 20 -79 56 -79h770z" />
    <glyph glyph-name="eight" unicode="8" 
d="M759 -671c120 70 233 175 187 367c-53 220 -240 327 -523 327c-225 0 -396 -74 -396 -287c0 -161 90 -248 191 -321c41 -29 88 -55 140 -80c-116 -66 -194 -180 -150 -347c53 -200 220 -305 478 -305c211 0 363 69 363 264c0 211 -145 305 -290 382zM578 -774
c104 -53 215 -102 215 -243c0 -77 -56 -108 -139 -108c-139 1 -227 88 -200 227c12 65 68 89 124 124zM459 -171c141 0 233 -64 233 -197c0 -108 -82 -140 -154 -189c-105 51 -195 95 -237 195c-9 22 -12 45 -12 69c3 92 70 122 170 122z" />
    <glyph glyph-name="nine" unicode="9" 
d="M452 -479c-238 0 -351 -151 -304 -391c52 -264 213 -442 531 -447c276 -4 377 175 349 459c-40 398 -172 728 -496 847c-129 48 -336 35 -454 -8c-67 -24 -33 -121 -16 -171c6 -17 16 -34 35 -35c72 14 139 47 233 45c243 -5 335 -170 387 -366c-69 38 -157 67 -265 67z
M753 -744c30 -152 63 -380 -116 -372c-149 7 -201 124 -231 251c-25 110 18 191 131 187c91 -3 157 -32 216 -66z" />
    <glyph glyph-name="percent" unicode="%" horiz-adv-x="1493" 
d="M1162 -664c192 -4 279 108 251 306c-30 211 -124 370 -363 375c-191 4 -276 -111 -247 -309c30 -208 123 -367 359 -372zM1006 -322c-18 79 -35 209 62 198c128 -15 154 -171 154 -307c0 -59 -16 -92 -75 -92c-97 0 -121 114 -141 201zM511 -1311c192 -4 279 109 251 307
c-30 211 -124 369 -363 374c-191 4 -276 -111 -247 -309c30 -208 123 -367 359 -372zM355 -969c-18 79 -35 209 62 198c128 -15 154 -171 154 -307c0 -59 -16 -92 -75 -92c-97 0 -121 114 -141 201zM294 -7c-28 33 -72 42 -136 41c-70 0 -109 -14 -66 -60l1175 -1263
c31 -43 119 -46 189 -37c37 4 35 33 13 56z" />
    <glyph glyph-name="plus" unicode="+" horiz-adv-x="1020" 
d="M969 -674c58 16 15 125 -1 164c-7 17 -20 34 -40 34h-311l-69 339c-15 57 -138 49 -192 31c-13 -4 -20 -14 -17 -31l69 -339h-310c-64 -22 -16 -158 14 -189c6 -6 14 -9 22 -9h313l68 -338c14 -58 138 -50 193 -32c13 4 19 15 16 32l-68 338h313z" />
    <glyph glyph-name="equal" unicode="=" horiz-adv-x="1020" 
d="M58 -324c4 -58 14 -147 70 -147h763c23 0 31 18 31 43c0 63 -10 149 -70 149h-762c-24 -1 -34 -16 -32 -45zM139 -728c4 -58 14 -146 69 -146h763c25 0 32 16 32 42c0 63 -13 138 -70 150h-762c-24 -1 -34 -17 -32 -46z" />
    <glyph glyph-name="less" unicode="&#x3c;" horiz-adv-x="1020" 
d="M1016 -1068c29 60 -10 159 -37 204c-9 15 -20 24 -31 29l-623 263l512 266c62 34 22 151 -1 202c-7 16 -22 32 -43 20l-689 -381c-47 -38 -8 -152 14 -195c8 -15 18 -24 29 -29l834 -377c16 -7 28 -8 35 -2z" />
    <glyph glyph-name="greater" unicode="&#x3e;" horiz-adv-x="1020" 
d="M47 -85c-27 -61 9 -159 37 -204c10 -15 20 -24 31 -29l623 -263l-512 -266c-63 -33 -22 -153 2 -203c7 -16 20 -32 42 -20l689 382c46 39 7 152 -15 195c-8 15 -18 24 -29 29l-834 377c-16 7 -27 8 -34 2z" />
    </font>
</defs>
</svg>
