<?xml version="1.0" standalone="no"?>
<!DOCTYPE svg PUBLIC "-//W3C//DTD SVG 1.1//EN" "http://www.w3.org/Graphics/SVG/1.1/DTD/svg11.dtd" >
<svg>
<metadata>
Created by FontForge 20090914 at Thu Apr 28 20:23:50 2011
 By www-data
&#194;&#169; 2006 Microsoft Corporation. All Rights Reserved.
</metadata>
<defs>
<font id="Calibri-Bold" horiz-adv-x="1038" >
  <font-face 
    font-family="Calibri"
    font-weight="700"
    font-stretch="normal"
    units-per-em="2048"
    panose-1="2 15 7 2 3 4 4 3 2 4"
    ascent="1536"
    descent="-512"
    x-height="23"
    cap-height="6"
    bbox="-37.469 -1527.55 1810.28 365.088"
    underline-thickness="186"
    underline-position="-86"
    unicode-range="U+0020-U+007E"
  />
    <missing-glyph />
    <glyph glyph-name="space" unicode=" " horiz-adv-x="463" 
 />
    <glyph glyph-name="space" unicode="&#xa0;" horiz-adv-x="463" 
 />
    <glyph glyph-name="A" unicode="A" horiz-adv-x="1241" 
d="M1201 -98c18 49 31 101 -32 102c-64 1 -184 14 -221 -18c-38 -88 -63 -189 -97 -281h-486l-82 253c-12 70 -138 45 -214 45c-59 0 -45 -55 -28 -103l399 -1148c17 -81 170 -50 264 -50c56 0 82 10 97 53zM790 -497l-184 -550l-183 550h367z" />
    <glyph glyph-name="B" unicode="B" horiz-adv-x="1148" 
d="M821 -699c153 32 257 131 257 311c0 288 -221 388 -515 388h-344c-48 -1 -78 -29 -78 -83v-1128c-2 -54 30 -83 78 -83h325c267 1 457 75 457 329c0 143 -74 225 -180 266zM546 -761c125 1 192 -57 192 -172c0 -121 -76 -164 -206 -164h-133v336h147zM589 -201
c132 0 216 -53 216 -178c0 -142 -97 -191 -250 -190h-156v368h190z" />
    <glyph glyph-name="C" unicode="C" horiz-adv-x="1084" 
d="M1002 -307c51 0 32 93 32 153c0 90 -76 107 -148 136c-61 25 -143 40 -230 39c-395 -7 -577 -247 -577 -651c0 -325 128 -543 357 -640c186 -79 484 -50 582 76c13 26 14 61 14 103c0 50 3 102 -37 110c-35 -6 -62 -36 -97 -57c-79 -49 -244 -80 -346 -24
c-128 70 -189 218 -189 418c0 258 86 437 334 442c119 3 200 -45 269 -89c16 -11 27 -16 36 -16z" />
    <glyph glyph-name="D" unicode="D" horiz-adv-x="1291" 
d="M141 -1211c-2 -54 30 -83 78 -83c216 0 467 -16 625 40c236 83 372 273 372 588c0 455 -230 669 -688 666h-309c-48 -1 -78 -29 -78 -83v-1128zM540 -208c289 2 404 -163 404 -449c0 -273 -122 -434 -408 -431h-133v880h137z" />
    <glyph glyph-name="E" unicode="E" horiz-adv-x="999" 
d="M869 -206c40 7 39 55 39 103s2 103 -39 103h-650c-48 -1 -78 -29 -78 -83v-1128c-2 -54 30 -83 78 -83h646c40 7 38 56 38 104c0 47 2 102 -38 102h-462v316h391c40 6 39 54 39 101c0 48 2 100 -39 100h-391v365h466z" />
    <glyph glyph-name="F" unicode="F" horiz-adv-x="940" 
d="M828 -1294c41 7 39 58 39 108s1 99 -39 107h-423v348h397c40 7 39 55 39 104c0 50 1 99 -39 107h-397v482c-9 49 -72 44 -132 44s-132 6 -132 -44v-1173c-2 -54 30 -83 78 -83h609z" />
    <glyph glyph-name="G" unicode="G" horiz-adv-x="1305" 
d="M1106 -736c48 2 70 34 70 84v515c2 86 -65 93 -134 115c-167 52 -420 63 -586 0c-238 -90 -383 -289 -383 -611c0 -332 153 -542 397 -636c209 -82 553 -57 684 61c26 23 25 59 25 115c0 47 4 99 -36 106c-37 -8 -75 -37 -119 -57c-107 -48 -309 -83 -439 -24
c-149 67 -242 207 -242 419c0 278 132 452 404 452c64 0 123 -16 167 -40v-300h-245c-35 -7 -38 -45 -38 -99c0 -47 -1 -100 38 -100h437z" />
    <glyph glyph-name="H" unicode="H" horiz-adv-x="1292" 
d="M1020 -1300c59 0 121 -5 131 42v1222c-10 47 -73 42 -131 42c-59 0 -121 5 -132 -42v-523h-484v523c-10 48 -72 42 -131 42s-122 5 -132 -42v-1222c10 -47 74 -42 132 -42c59 0 121 -5 131 42v475h484v-475c10 -47 73 -42 132 -42z" />
    <glyph glyph-name="I" unicode="I" horiz-adv-x="546" 
d="M273 -1300c59 0 121 -5 132 42v1222c-10 47 -73 42 -132 42s-122 5 -132 -42v-1222c10 -47 73 -42 132 -42z" />
    <glyph glyph-name="J" unicode="J" horiz-adv-x="678" 
d="M275 -1260c14 -58 125 -38 195 -38c34 0 69 7 69 38v900c8 262 -122 413 -393 376c-69 -10 -144 -21 -142 -102c2 -62 -18 -152 32 -162c43 10 72 40 130 40c92 0 109 -67 109 -163v-889z" />
    <glyph glyph-name="K" unicode="K" horiz-adv-x="1120" 
d="M141 -1257c12 -61 126 -40 196 -40c35 0 67 7 67 40v551l379 -550c30 -64 178 -47 255 -32c31 6 34 39 19 66c-6 12 -15 32 -34 57l-355 465l387 585c21 45 38 54 25 95c-32 37 -168 27 -224 21c-34 -4 -47 -17 -61 -39l-391 -614v614c-9 49 -71 44 -131 44
s-132 6 -132 -44v-1219z" />
    <glyph glyph-name="L" unicode="L" horiz-adv-x="866" 
d="M812 -217c42 6 40 57 40 107s3 110 -40 110h-593c-48 -1 -78 -29 -78 -83v-1175c10 -47 74 -42 132 -42c59 0 121 -5 132 42v1041h407z" />
    <glyph glyph-name="M" unicode="M" horiz-adv-x="1790" 
d="M1545 -1294c70 0 103 36 104 105v1153c-8 47 -69 42 -125 42s-124 5 -124 -42v-1053h-2l-375 1052c-17 58 -122 45 -193 41c-37 -2 -66 -12 -76 -41l-362 -1052h-2v1053c-8 47 -68 42 -125 42c-56 0 -124 5 -124 -42v-1153c-1 -65 37 -105 99 -105c137 0 298 -26 348 78
c9 20 18 44 28 71l280 771h4l290 -769c27 -88 63 -151 178 -151h177z" />
    <glyph glyph-name="N" unicode="N" horiz-adv-x="1349" 
d="M1093 -1298c54 0 115 -4 115 43v1163c-1 61 -39 94 -99 94c-83 0 -173 12 -219 -32c-36 -35 -59 -77 -87 -132l-322 -605c-19 -36 -37 -76 -57 -117s-34 -86 -54 -121c3 48 6 95 6 143l2 825c-8 46 -64 43 -120 43c-55 0 -117 4 -117 -43v-1163c-2 -60 40 -94 95 -94
c90 0 198 -15 252 28c33 25 52 63 75 107l295 557l119 245l-6 -291v-607c9 -46 65 -43 122 -43z" />
    <glyph glyph-name="O" unicode="O" horiz-adv-x="1385" 
d="M705 -1317c417 -3 603 234 600 655c-3 427 -199 682 -624 685c-423 3 -605 -235 -601 -662c4 -423 203 -675 625 -678zM689 -194c259 -2 340 -195 340 -454c0 -263 -71 -455 -333 -453c-256 2 -340 192 -340 449c0 266 66 460 333 458z" />
    <glyph glyph-name="P" unicode="P" horiz-adv-x="1090" 
d="M535 -1294c286 0 492 108 492 393c0 350 -245 472 -623 452v413c-10 47 -73 42 -132 42c-58 0 -131 6 -131 -42v-1164c-1 -59 33 -94 89 -94h305zM522 -652c154 0 230 -83 230 -230c0 -148 -87 -213 -236 -209h-112v439h118z" />
    <glyph glyph-name="Q" unicode="Q" horiz-adv-x="1405" 
d="M1305 -664c-1 229 -59 404 -172 519c79 70 149 113 243 145c48 16 51 56 51 123c0 53 2 104 -41 111c-130 -15 -235 -84 -328 -152c-43 -32 -83 -69 -120 -111c-65 29 -157 52 -257 52c-425 0 -605 -234 -601 -663c4 -423 203 -677 625 -677c414 0 600 234 600 653z
M689 -194c259 -2 340 -196 340 -456c0 -262 -72 -453 -333 -451c-256 1 -340 192 -340 447c0 267 65 462 333 460z" />
    <glyph glyph-name="R" unicode="R" horiz-adv-x="1153" 
d="M1034 -939c0 192 -104 288 -251 337c93 44 142 131 184 230l109 255c14 43 31 61 21 101c-33 33 -142 20 -209 20c-39 0 -58 -13 -70 -42l-116 -289c-46 -99 -78 -200 -216 -202h-82v493c-10 47 -73 42 -132 42c-58 0 -131 6 -131 -42v-1175c-2 -54 30 -83 78 -83h335
c283 -3 480 85 480 355zM538 -726c134 -2 224 -56 224 -186c0 -136 -91 -186 -240 -181h-118v367h134z" />
    <glyph glyph-name="S" unicode="S" horiz-adv-x="968" 
d="M705 -1068c-113 -58 -360 -76 -353 95c5 107 96 140 176 177c179 83 380 150 380 408c0 216 -125 333 -293 385c-181 56 -425 20 -528 -74c-24 -22 -24 -56 -24 -108c0 -50 -5 -104 38 -110c35 7 66 35 105 53c58 26 133 55 224 53c119 -2 205 -49 205 -165
c0 -107 -94 -141 -174 -178c-179 -84 -369 -152 -376 -412c-9 -343 389 -443 683 -320c58 24 68 56 65 133c-2 47 7 101 -34 107c-29 -6 -62 -27 -94 -44z" />
    <glyph glyph-name="T" unicode="T" horiz-adv-x="1014" 
d="M963 -1294c41 7 39 59 39 108s2 107 -39 107h-324v1043c-10 47 -74 42 -132 42c-59 0 -122 5 -132 -42v-1043h-324c-41 -7 -39 -58 -39 -107s-3 -108 39 -108h912z" />
    <glyph glyph-name="U" unicode="U" horiz-adv-x="1337" 
d="M1068 -1300c58 0 119 -5 129 42v776c-5 337 -196 505 -536 505c-333 0 -521 -161 -521 -494v-787c10 -48 73 -42 132 -42s121 -5 131 42v764c1 189 86 301 269 301c177 0 265 -108 265 -286v-779c9 -48 73 -42 131 -42z" />
    <glyph glyph-name="V" unicode="V" horiz-adv-x="1211" 
d="M785 -46c-16 77 -142 52 -237 52c-62 0 -107 -6 -124 -55l-385 -1147c-20 -52 -27 -102 38 -102c71 0 203 -26 226 47l316 998l319 -1021c28 -40 142 -26 208 -23c58 2 41 56 25 103z" />
    <glyph glyph-name="W" unicode="W" horiz-adv-x="1856" 
d="M1624 -1298c65 0 193 -28 186 46c-1 14 -4 34 -10 59l-297 1126c-12 100 -172 71 -277 71c-59 0 -85 -20 -98 -71l-207 -820h-2l-196 820c-8 103 -172 71 -277 71c-60 0 -85 -20 -98 -71l-294 -1129c-16 -55 -18 -102 42 -102c72 0 221 -35 223 52l228 991l236 -984
c5 -85 138 -59 223 -59c49 0 68 17 78 59l244 984h2l235 -1015c9 -19 30 -28 59 -28z" />
    <glyph glyph-name="X" unicode="X" horiz-adv-x="1128" 
d="M1063 -99c26 45 45 102 -27 102c-73 0 -207 21 -238 -38l-243 -467l-242 467c-21 61 -153 38 -231 38c-32 0 -51 -12 -43 -46c4 -14 12 -33 25 -56l310 -565l-288 -531c-14 -35 -38 -59 -20 -89c46 -26 184 -20 249 -8c22 4 26 16 35 33l227 428l221 -428
c19 -61 146 -39 223 -39c33 0 52 12 45 46c-4 14 -9 34 -22 57l-288 528z" />
    <glyph glyph-name="Y" unicode="Y" horiz-adv-x="1064" 
d="M664 -36c-13 59 -127 39 -196 39c-34 0 -68 -7 -68 -39v-455l-354 -705c-15 -36 -37 -58 -18 -88c46 -26 183 -20 245 -6c22 5 29 17 38 37l185 415c16 35 25 75 44 107c70 -189 150 -367 232 -543c32 -39 157 -24 222 -24c35 0 56 10 48 45c-4 14 -12 33 -24 57
l-354 705v455z" />
    <glyph glyph-name="Z" unicode="Z" horiz-adv-x="979" 
d="M897 -211c38 8 39 49 39 107c0 48 2 104 -39 104h-763c-112 9 -96 -174 -54 -241l530 -844h-498c-46 -3 -45 -53 -45 -103c0 -51 -2 -106 45 -106h715c116 -10 94 184 51 252l-522 831h541z" />
    <glyph glyph-name="a" unicode="a" horiz-adv-x="1011" 
d="M492 -983c257 -3 394 96 394 352v600c-7 42 -52 37 -105 37c-55 0 -103 6 -103 -37v-71c-67 71 -154 125 -282 125c-196 0 -325 -93 -325 -290c0 -279 271 -309 568 -304c10 -143 -29 -221 -169 -221c-111 0 -194 40 -264 76c-17 9 -30 14 -41 14
c-61 0 -59 -149 -21 -182c74 -64 208 -97 348 -99zM451 -155c90 -2 135 -50 188 -106v-152c-155 -1 -320 -9 -322 138c-1 77 54 122 134 120z" />
    <glyph glyph-name="b" unicode="b" horiz-adv-x="1099" 
d="M378 -856c72 -69 147 -127 282 -127c272 0 364 218 364 491c0 230 -71 401 -222 479c-48 24 -101 36 -162 36c-151 -1 -224 -72 -299 -154v97c-5 44 -58 40 -108 40c-51 0 -107 5 -107 -40v-1315c9 -47 68 -43 126 -43s117 -4 126 43v493zM378 -330
c59 70 104 139 203 139c140 0 182 -139 182 -283c0 -150 -31 -294 -177 -294c-109 0 -152 75 -208 142v296z" />
    <glyph glyph-name="c" unicode="c" horiz-adv-x="857" 
d="M330 -481c1 165 45 290 205 293c94 2 152 -44 202 -84c24 -19 51 -23 57 8c10 57 19 168 -20 200c-62 50 -163 86 -277 86c-295 0 -425 -187 -425 -485c0 -319 141 -519 449 -519c103 0 192 33 248 79c28 23 27 60 28 110c4 74 -17 130 -72 91c-49 -35 -104 -78 -193 -76
c-149 4 -203 127 -202 297z" />
    <glyph glyph-name="d" unicode="d" horiz-adv-x="1099" 
d="M847 -1389c58 0 125 -4 125 43v1312c-4 44 -56 40 -105 40c-52 0 -108 5 -108 -40v-99c-81 84 -166 156 -312 156c-276 0 -372 -214 -372 -491c0 -231 69 -402 222 -479c49 -24 105 -36 168 -36c120 0 187 53 257 120v-483c8 -47 68 -43 125 -43zM510 -190
c111 0 153 -77 212 -144v-296c-60 -70 -107 -140 -207 -140c-143 0 -184 140 -184 285c0 150 32 295 179 295z" />
    <glyph glyph-name="e" unicode="e" horiz-adv-x="1031" 
d="M529 -983c296 0 421 174 421 477c0 57 -25 89 -77 90h-543c0 163 79 249 244 249c107 0 190 -24 263 -51c16 -6 29 -10 39 -10c50 5 34 96 28 147c-6 55 -69 58 -126 75c-63 18 -144 30 -227 29c-324 1 -480 -167 -477 -493c3 -312 147 -513 455 -513zM706 -578
c4 -135 -52 -229 -183 -227c-133 2 -185 98 -193 227h376z" />
    <glyph glyph-name="f" unicode="f" horiz-adv-x="648" 
d="M175 -960c-13 -266 59 -444 313 -440c59 1 123 11 156 34c19 20 20 58 20 100s4 82 -28 90c-34 -7 -61 -22 -106 -22c-116 0 -104 123 -104 238h163c41 5 39 54 39 102c0 55 -2 94 -39 102h-163v722c-8 46 -70 40 -126 40s-125 7 -125 -40v-722h-112
c-36 -7 -38 -47 -38 -102c0 -48 -3 -102 39 -102h111z" />
    <glyph glyph-name="g" unicode="g" horiz-adv-x="971" 
d="M892 -960c34 7 37 44 38 96c0 48 -7 87 -38 94h-105c27 28 41 68 41 118c0 222 -147 321 -370 325c-52 1 -112 -15 -142 -35c-27 25 -52 94 -6 118c103 53 302 7 424 50c106 37 184 105 184 240c0 237 -211 319 -466 319c-187 0 -336 -33 -402 -145
c-17 -29 -23 -62 -23 -97c3 -112 63 -169 129 -221c-51 -26 -90 -78 -90 -149c0 -89 47 -148 97 -195c-47 -48 -79 -109 -77 -206c5 -221 148 -326 371 -331c56 -1 108 7 152 19h283zM457 -502c97 -1 148 -58 150 -151c2 -96 -57 -153 -153 -152c-97 1 -146 61 -148 156
c-2 91 59 148 151 147zM463 193c112 0 203 -31 203 -134c0 -126 -190 -90 -314 -100c-43 35 -82 62 -82 132c0 82 93 102 193 102z" />
    <glyph glyph-name="h" unicode="h" horiz-adv-x="1099" 
d="M651 -983c241 0 327 154 327 402v547c-9 46 -69 40 -125 40c-57 0 -126 7 -126 -40v-509c0 -131 -31 -221 -150 -221c-92 0 -143 70 -199 137v593c-9 46 -69 40 -126 40s-117 6 -126 -40v-1315c9 -47 68 -43 126 -43s117 -4 126 43v493c74 -71 150 -127 273 -127z" />
    <glyph glyph-name="i" unicode="i" horiz-adv-x="503" 
d="M252 -966c57 0 116 -4 126 42v890c-9 46 -69 40 -126 40s-117 6 -126 -40v-890c10 -46 69 -42 126 -42zM253 -1358c109 0 144 26 144 130c0 107 -36 134 -146 134s-144 -24 -144 -129c0 -107 35 -135 146 -135z" />
    <glyph glyph-name="j" unicode="j" horiz-adv-x="523" 
d="M271 -966c57 0 116 -4 126 42v920c8 257 -106 393 -363 364c-64 -7 -74 -42 -71 -111c2 -43 -5 -89 29 -97c12 1 37 6 54 5c90 -4 100 -64 100 -166v-915c9 -46 68 -42 125 -42zM272 -1358c110 0 144 26 144 130c0 107 -35 134 -146 134c-109 0 -144 -25 -144 -129
c0 -107 36 -135 146 -135z" />
    <glyph glyph-name="k" unicode="k" horiz-adv-x="983" 
d="M728 -964c77 -2 224 -24 186 71c-5 11 -12 24 -23 36l-261 296l302 467c18 27 42 81 -2 90c-72 15 -219 25 -255 -32l-297 -470v472c-9 46 -69 40 -126 40s-117 6 -126 -40v-1315c9 -47 68 -43 126 -43s117 -4 126 43v783l264 -355c17 -27 44 -42 86 -43z" />
    <glyph glyph-name="l" unicode="l" horiz-adv-x="503" 
d="M252 -1392c58 0 117 -4 126 43v1315c-9 46 -69 40 -126 40s-117 6 -126 -40v-1315c9 -47 68 -43 126 -43z" />
    <glyph glyph-name="m" unicode="m" horiz-adv-x="1666" 
d="M1227 -983c228 0 318 152 318 378v571c-9 46 -69 40 -125 40c-57 0 -126 7 -126 -40v-529c-2 -111 -33 -201 -142 -201c-89 0 -134 71 -191 137v593c-9 46 -69 40 -125 40c-57 0 -117 6 -126 -40v-529c-2 -111 -33 -201 -141 -201c-90 0 -135 71 -191 137v593
c-9 46 -69 40 -126 40s-117 6 -126 -40v-892c6 -43 58 -40 108 -40c51 0 107 -4 107 40v103c83 -87 161 -160 301 -160c147 0 232 63 279 163c81 -82 157 -163 306 -163z" />
    <glyph glyph-name="n" unicode="n" horiz-adv-x="1099" 
d="M651 -983c239 0 327 152 327 398v551c-9 46 -69 40 -125 40c-57 0 -126 7 -126 -40v-509c0 -131 -31 -221 -150 -221c-92 0 -143 70 -199 137v593c-9 46 -69 40 -126 40s-117 6 -126 -40v-892c6 -43 58 -40 108 -40c51 0 107 -4 107 40v103c83 -88 167 -160 310 -160z
" />
    <glyph glyph-name="o" unicode="o" horiz-adv-x="1101" 
d="M561 -983c320 0 467 175 467 494c0 323 -164 512 -489 512c-318 0 -467 -176 -467 -494c0 -322 164 -512 489 -512zM548 -178c169 0 221 -128 221 -301c0 -172 -45 -305 -217 -305c-168 0 -221 130 -221 302c0 171 45 304 217 304z" />
    <glyph glyph-name="p" unicode="p" horiz-adv-x="1099" 
d="M661 -983c272 0 363 216 363 490c0 294 -104 516 -389 516c-126 0 -188 -60 -257 -123v420c-9 47 -68 43 -126 43s-117 4 -126 -43v-1246c6 -43 57 -40 107 -40c49 0 106 -3 106 40v105c84 -82 164 -162 322 -162zM579 -191c141 0 183 -140 183 -284
c0 -149 -30 -293 -175 -293c-109 0 -153 75 -209 143v294c59 69 104 140 201 140z" />
    <glyph glyph-name="q" unicode="q" horiz-adv-x="1099" 
d="M867 -966c49 0 105 -3 105 40v1246c-9 47 -68 43 -125 43s-125 5 -125 -43v-424c-75 67 -147 127 -284 127c-271 0 -363 -218 -363 -491c0 -231 72 -402 225 -479c49 -24 105 -36 169 -36c146 0 207 79 290 154v-97c7 -43 57 -40 108 -40zM510 -190
c111 0 153 -77 212 -144v-296c-60 -70 -107 -140 -207 -140c-143 0 -184 140 -184 285c0 150 32 295 179 295z" />
    <glyph glyph-name="r" unicode="r" horiz-adv-x="728" 
d="M341 -815c67 -100 161 -204 324 -153c54 16 32 115 32 184c0 38 -11 69 -51 56c-26 -8 -49 -22 -83 -19c-100 9 -134 86 -185 157v556c-9 46 -69 40 -126 40s-117 6 -126 -40v-892c6 -43 58 -40 108 -40c51 0 107 -4 107 40v111z" />
    <glyph glyph-name="s" unicode="s" horiz-adv-x="817" 
d="M447 -805c-75 1 -132 25 -132 95c0 106 136 112 219 150c113 52 216 112 220 274c8 303 -374 367 -623 259c-49 -21 -58 -50 -58 -122c0 -44 -5 -88 33 -92c76 27 146 85 257 81c82 -2 146 -26 146 -106c0 -106 -133 -112 -215 -150c-112 -53 -216 -114 -216 -278
c0 -273 331 -339 570 -248c48 19 58 51 56 115c-1 41 6 84 -30 88c-66 -24 -130 -68 -227 -66z" />
    <glyph glyph-name="t" unicode="t" horiz-adv-x="710" 
d="M626 -214c43 10 29 115 22 160c-12 74 -106 71 -188 74c-206 7 -291 -111 -291 -319v-457h-107c-37 -7 -39 -47 -39 -102c0 -48 -2 -102 40 -102h106v-199c7 -47 69 -42 125 -42c58 0 126 -6 126 42v199h194c42 5 40 54 40 102c0 55 -2 94 -39 102h-195v419
c1 90 19 145 105 146c42 2 68 -17 101 -23z" />
    <glyph glyph-name="u" unicode="u" horiz-adv-x="1099" 
d="M847 -966c57 0 116 -6 125 40v892c-6 43 -57 40 -107 40c-52 0 -108 4 -108 -40v-103c-83 88 -167 160 -309 160c-242 0 -327 -152 -327 -403v-546c8 -46 70 -40 125 -40c57 0 117 -6 126 40v504c-1 136 29 226 150 226c93 0 141 -70 200 -137v-593c8 -46 69 -40 125 -40
z" />
    <glyph glyph-name="v" unicode="v" horiz-adv-x="969" 
d="M766 -964c80 -3 211 -29 174 84l-274 832c-20 81 -169 52 -268 52c-51 0 -81 -12 -94 -52l-268 -807c-7 -25 -14 -45 -14 -72c0 -60 125 -37 191 -37c39 0 61 10 70 41l209 680l206 -680c7 -31 32 -40 68 -41z" />
    <glyph glyph-name="w" unicode="w" horiz-adv-x="1526" 
d="M1309 -964c73 0 202 -30 179 63c-2 11 -6 26 -11 46l-238 807c-15 79 -154 52 -244 52c-48 0 -75 -13 -86 -52l-152 -551l-140 551c-13 80 -156 52 -247 52c-48 0 -74 -13 -85 -52l-247 -852c-21 -94 105 -64 188 -64c38 0 59 10 67 41l179 667l168 -667
c11 -60 118 -41 186 -41c34 0 57 9 64 37l181 671l172 -667c5 -31 30 -41 66 -41z" />
    <glyph glyph-name="x" unicode="x" horiz-adv-x="941" 
d="M901 -52c29 66 -57 58 -127 58c-68 0 -127 8 -150 -35l-165 -317l-165 317c-21 53 -139 33 -211 33c-40 0 -62 -20 -42 -56l247 -439l-228 -412c-23 -38 1 -59 44 -60c59 -2 171 -11 212 13c63 99 113 211 171 314l167 -312c42 -27 169 -23 224 -7c19 13 11 30 0 52
l-222 405z" />
    <glyph glyph-name="y" unicode="y" horiz-adv-x="970" 
d="M744 -962c61 -6 202 -25 204 44c0 12 -3 27 -8 44l-405 1190c-22 55 -149 50 -230 44c-38 -3 -58 -22 -43 -61l119 -299c-17 -8 -33 -27 -39 -45l-307 -820c-9 -23 -13 -41 -13 -53c4 -69 124 -46 196 -46c49 0 60 21 74 61l210 597h3l192 -609c8 -33 14 -44 47 -47z" />
    <glyph glyph-name="z" unicode="z" horiz-adv-x="814" 
d="M708 -202c43 4 42 51 42 99s2 103 -42 103h-583c-75 3 -63 -119 -49 -184c5 -23 18 -38 32 -58l334 -516h-316c-36 -6 -42 -48 -42 -101c0 -49 -2 -101 42 -101h545c73 -5 55 90 52 156c-2 37 -18 60 -35 87l-332 515h352z" />
    <glyph glyph-name="grave" unicode="`" horiz-adv-x="615" 
d="M502 -1135c31 49 -23 52 -78 52c-56 0 -93 -5 -118 -35l-193 -232c-27 -29 4 -48 38 -50c68 -5 178 -13 208 36zM0 -960z" />
    <glyph glyph-name="exclam" unicode="!" horiz-adv-x="667" 
d="M371 -1384c64 0 138 -4 136 52l-26 908c-11 62 -141 47 -197 32c-15 -4 -23 -16 -23 -32l-26 -908c6 -57 72 -52 136 -52zM371 -280c105 0 141 44 141 149c0 104 -38 146 -141 146c-104 0 -141 -42 -141 -146c0 -105 36 -149 141 -149z" />
    <glyph glyph-name="question" unicode="?" horiz-adv-x="949" 
d="M323 -1376c314 -42 543 93 543 388c0 224 -122 349 -323 376l-8 195c-14 51 -141 39 -199 29c-16 -3 -25 -12 -26 -29l-9 -236c-5 -75 20 -105 96 -105c133 0 203 -78 203 -209c0 -141 -78 -216 -221 -217c-86 -1 -150 25 -203 54c-62 34 -57 -43 -61 -101
c-7 -98 54 -100 121 -125c25 -9 55 -16 87 -20zM429 -280c104 0 141 44 141 149c0 104 -38 146 -141 146c-104 0 -142 -42 -142 -146c0 -105 36 -149 142 -149z" />
    <glyph glyph-name="comma" unicode="," horiz-adv-x="528" 
d="M289 -289c86 0 133 17 133 105c0 111 -29 181 -75 247l-134 192c-23 45 -128 44 -181 27c-11 -7 -10 -18 -4 -32l122 -276v-158c-4 -89 50 -105 139 -105z" />
    <glyph glyph-name="semicolon" unicode=";" horiz-adv-x="565" 
d="M300 -943c106 0 142 47 142 153c0 104 -37 149 -142 149s-140 -44 -140 -149c0 -107 34 -153 140 -153zM312 -289c85 0 130 19 130 105c0 111 -27 182 -73 247l-130 188c-22 44 -123 44 -176 27c-11 -8 -10 -18 -4 -32l117 -272v-158c-4 -88 49 -105 136 -105z" />
    <glyph glyph-name="colon" unicode=":" horiz-adv-x="565" 
d="M300 -943c106 0 142 47 142 153c0 104 -37 149 -142 149s-140 -44 -140 -149c0 -107 34 -153 140 -153zM300 -289c106 0 142 47 142 152c0 104 -37 150 -142 150s-140 -45 -140 -150c0 -106 34 -152 140 -152z" />
    <glyph glyph-name="period" unicode="." horiz-adv-x="547" 
d="M275 -296c115 0 147 34 147 152c0 122 -31 157 -149 157c-116 0 -148 -33 -148 -151c0 -124 31 -158 150 -158z" />
    <glyph glyph-name="slash" unicode="/" horiz-adv-x="880" 
d="M252 259c-17 57 -127 46 -193 40c-39 -3 -67 -20 -51 -62l598 -1679c14 -59 127 -47 192 -41c38 3 66 20 51 62z" />
    <glyph glyph-name="bar" unicode="|" horiz-adv-x="973" 
d="M486 -1446c55 0 119 -4 119 43v1726c-7 46 -64 42 -119 42s-118 4 -118 -42v-1726c7 -46 64 -43 118 -43z" />
    <glyph glyph-name="backslash" unicode="\" horiz-adv-x="880" 
d="M866 218c17 42 11 72 -38 72c-65 -1 -183 20 -203 -35l-586 -1651c-18 -42 -12 -72 37 -72c64 0 182 -21 202 35z" />
    <glyph glyph-name="hyphen" unicode="-" horiz-adv-x="627" 
d="M522 -605c46 3 46 52 46 102c0 60 -2 104 -46 104h-416c-45 -5 -47 -44 -47 -104c0 -59 2 -102 47 -102h416z" />
    <glyph glyph-name="hyphen" unicode="&#x2010;" horiz-adv-x="627" 
d="M522 -605c46 3 46 52 46 102c0 60 -2 104 -46 104h-416c-45 -5 -47 -44 -47 -104c0 -59 2 -102 47 -102h416z" />
    <glyph glyph-name="hyphen" unicode="&#xad;" horiz-adv-x="627" 
d="M522 -605c46 3 46 52 46 102c0 60 -2 104 -46 104h-416c-45 -5 -47 -44 -47 -104c0 -59 2 -102 47 -102h416z" />
    <glyph glyph-name="underscore" unicode="_" horiz-adv-x="1020" 
d="M985 179c40 5 41 40 41 93s-1 93 -41 93h-950c-40 -4 -42 -39 -42 -92s1 -94 42 -94h950z" />
    <glyph glyph-name="parenleft" unicode="(" horiz-adv-x="638" 
d="M534 290c31 75 -80 65 -149 61c-30 -2 -54 -7 -65 -27c-180 -319 -278 -844 -159 -1300c40 -152 92 -293 159 -425c32 -36 156 -29 205 -9c16 7 18 24 10 42c-151 335 -221 816 -127 1254c29 138 72 272 126 404z" />
    <glyph glyph-name="parenright" unicode=")" horiz-adv-x="638" 
d="M308 336c-52 22 -194 36 -211 -18c0 -8 2 -17 6 -28c150 -337 221 -816 127 -1256c-29 -138 -76 -270 -128 -402c-27 -68 90 -54 156 -54c27 0 51 4 60 21c182 338 277 841 160 1303c-38 153 -92 292 -160 422c-2 5 -5 8 -10 12z" />
    <glyph glyph-name="bracketleft" unicode="[" horiz-adv-x="665" 
d="M543 158c37 4 35 47 35 90c0 50 -2 83 -35 90h-309c-52 -1 -76 -31 -77 -84v-1586c1 -52 25 -83 77 -83h309c37 5 35 47 35 90c0 51 -1 83 -35 90h-151v1393h151z" />
    <glyph glyph-name="bracketright" unicode="]" horiz-adv-x="665" 
d="M432 -1415c52 0 78 32 78 83v1586c-1 52 -26 84 -78 84h-310c-33 -6 -35 -40 -35 -90c0 -42 -2 -90 35 -90h152v-1393h-152c-34 -6 -35 -39 -35 -90c0 -43 -1 -90 35 -90h310z" />
    <glyph glyph-name="braceleft" unicode="{" horiz-adv-x="704" 
d="M583 146c67 -2 52 110 39 161c-19 34 -69 32 -118 32c-230 0 -270 -162 -270 -403c0 -179 28 -382 -141 -410c-54 -9 -44 -119 -31 -171c4 -14 13 -19 28 -22c105 -18 145 -104 144 -239v-129c-7 -258 57 -425 317 -401c40 4 77 10 79 56c2 49 11 132 -38 134
c-50 2 -90 3 -106 40c-28 64 -19 195 -19 296c0 188 -59 300 -206 339c147 38 207 151 206 338v168c1 81 1 124 19 171c13 37 46 43 97 40z" />
    <glyph glyph-name="braceright" unicode="}" horiz-adv-x="704" 
d="M188 -1436c259 -25 316 142 316 401c0 134 -30 303 76 347c37 15 101 9 101 70c0 50 13 132 -33 141c-152 30 -148 225 -144 413c6 258 -57 423 -316 400c-40 -3 -77 -12 -80 -56c-3 -49 -10 -134 37 -134c52 0 91 -3 107 -40c28 -65 17 -195 19 -296
c3 -195 54 -340 206 -383c-142 -33 -211 -112 -206 -294v-167c-1 -81 -2 -123 -18 -171c-13 -38 -48 -43 -97 -41c-71 3 -56 -110 -40 -161c8 -25 45 -26 72 -29z" />
    <glyph glyph-name="asterisk" unicode="*" horiz-adv-x="1020" 
d="M859 -939c13 5 19 15 19 31c0 29 -59 126 -80 136c-14 7 -25 9 -36 0l-199 -159l40 251c2 41 -40 43 -97 43s-104 -2 -97 -43l40 -251l-199 159c-10 9 -21 7 -35 0c-20 -11 -80 -105 -80 -136c0 -16 5 -26 18 -31l238 -92l-238 -92c-13 -5 -18 -15 -18 -31
c0 -30 58 -127 79 -137c14 -7 25 -8 36 1l199 159l-40 -251c-2 -40 41 -43 97 -43c57 0 103 3 97 43l-40 251l199 -159c11 -9 22 -8 36 0c20 11 80 106 80 136c0 16 -6 26 -19 31l-237 92z" />
    <glyph glyph-name="asciicircum" unicode="^" horiz-adv-x="1020" 
d="M968 -596c21 39 27 80 -28 82c-73 1 -190 17 -214 -42l-221 -541l-5 1l-212 540c-20 60 -138 43 -212 42c-53 -2 -45 -41 -27 -82l288 -656c38 -69 201 -58 288 -38c25 6 40 18 50 38z" />
    <glyph glyph-name="asciitilde" unicode="~" horiz-adv-x="1020" 
d="M873 -1145c47 0 92 -1 93 43c7 231 -116 378 -347 336c-104 -19 -151 -104 -215 -165c-19 -18 -36 -29 -69 -29c-76 0 -89 68 -94 145c-2 35 -44 34 -92 35c-57 1 -92 -3 -92 -69c0 -218 122 -350 347 -309c104 19 151 101 214 163c18 18 37 30 70 30
c76 0 90 -68 94 -148c2 -31 48 -32 91 -32z" />
    <glyph glyph-name="quotesingle" unicode="'" horiz-adv-x="478" 
d="M148 -1388c60 -14 197 -32 207 31l-23 447c-4 60 -118 46 -166 31c-14 -4 -20 -15 -21 -31l-23 -447c-1 -17 10 -27 26 -31z" />
    <glyph glyph-name="quotedbl" unicode="&#x22;" horiz-adv-x="898" 
d="M617 -1399c52 0 115 -4 113 42l-23 447c-3 41 -45 42 -90 42c-46 0 -89 -1 -91 -42l-24 -447c7 -44 62 -42 115 -42zM146 -1388c57 -16 207 -28 204 31l-24 447c-4 59 -116 46 -162 31c-13 -4 -18 -16 -19 -31l-23 -447c-1 -17 9 -27 24 -31z" />
    <glyph glyph-name="ampersand" unicode="&#x26;" horiz-adv-x="1443" 
d="M1008 -113c-167 143 -577 190 -781 43c-84 -61 -145 -150 -145 -291c0 -197 131 -278 260 -361c-64 -89 -141 -164 -141 -301c0 -241 181 -336 435 -336c231 0 403 66 403 287c0 153 -89 226 -186 296c-41 29 -90 57 -145 86c82 92 178 184 271 266
c38 -63 58 -147 58 -250c0 -50 62 -42 117 -42c69 0 124 -9 119 75c-9 149 -45 268 -105 361c60 38 89 83 174 92c47 5 26 124 22 174c-29 52 -140 36 -189 8c-56 -31 -108 -63 -167 -107zM623 -1164c-111 0 -179 65 -150 172c17 61 60 110 94 158c83 -48 162 -81 196 -162
c41 -98 -34 -168 -140 -168zM480 -568c-66 45 -121 93 -126 193c-9 226 325 236 458 123c-117 -95 -233 -204 -332 -316zM0 -1294z" />
    <glyph glyph-name="at" unicode="@" horiz-adv-x="1840" 
d="M1020 -1341c422 2 691 164 691 572c0 287 -91 507 -299 593c-43 17 -92 25 -147 25c-128 0 -211 -47 -238 -147c-78 75 -154 141 -296 147c-310 13 -263 -435 -159 -627c58 -107 144 -199 305 -199c117 0 169 59 225 127c13 -37 5 -91 42 -104c33 -11 168 -27 158 27
l-86 447c-17 91 -2 143 77 143c149 0 171 -182 189 -329c42 -341 -148 -493 -485 -486c-418 8 -600 256 -649 630c-6 43 -7 84 -7 124c-5 332 173 464 511 464c142 0 263 -32 370 -56c42 10 29 101 22 150c-8 55 -76 53 -138 68c-78 19 -177 27 -278 27
c-453 0 -708 -192 -708 -634c0 -435 182 -724 480 -874c113 -57 251 -88 420 -88zM732 -598c-25 97 -41 267 79 261c93 -5 131 -69 187 -122l41 -221c-35 -75 -108 -143 -199 -94c-59 32 -89 103 -108 176zM0 -1294z" />
    <glyph glyph-name="dollar" unicode="$" 
d="M750 -1057c-117 -54 -388 -80 -383 95c3 112 98 143 185 176l108 40c153 60 291 140 291 353c0 258 -184 366 -427 392l-21 214c-10 50 -123 36 -167 21c-13 -5 -19 -16 -16 -34l21 -203c-92 -14 -183 -34 -237 -83c-22 -20 -22 -52 -22 -101c0 -52 -6 -106 39 -111
c93 37 183 96 327 96c134 0 231 -46 231 -159c0 -112 -97 -142 -183 -175c-191 -74 -397 -135 -393 -399c3 -230 156 -330 368 -357l20 -201c11 -50 124 -35 168 -21c14 5 19 18 17 35l-20 189c72 11 150 30 196 66c26 20 24 62 25 109c2 61 -2 126 -66 86
c-16 -10 -37 -17 -61 -28z" />
    <glyph glyph-name="numbersign" unicode="#" horiz-adv-x="1020" 
d="M953 -971c32 5 38 38 38 85c0 42 -2 86 -39 86h-114l-34 285h98c32 5 38 38 38 85c0 42 -2 87 -39 87h-119l-37 313c-8 50 -98 34 -153 34c-27 0 -49 -8 -46 -34l38 -313h-224l-37 313c-8 50 -98 34 -153 34c-25 0 -48 -7 -45 -34l36 -313h-95c-33 -5 -38 -37 -38 -85
c0 -42 2 -87 39 -87h116l34 -285h-101c-33 -5 -38 -37 -38 -85c0 -49 5 -86 39 -86h120l36 -292c8 -50 100 -38 155 -35c25 1 47 8 44 34l-37 293h224l34 -292c13 -54 132 -39 185 -27c11 6 15 12 14 26l-35 293h96zM415 -800l-34 285h223l35 -285h-224z" />
    <glyph glyph-name="zero" unicode="0" 
d="M532 -1317c376 -3 452 287 450 665c-2 382 -98 672 -475 675c-375 3 -450 -287 -450 -665c0 -381 99 -672 475 -675zM638 -236c95 -112 87 -368 74 -566c-10 -157 -27 -307 -191 -307c-204 0 -199 238 -199 454c0 154 15 275 46 373c33 104 201 127 270 46z" />
    <glyph glyph-name="one" unicode="1" 
d="M904 -203c40 7 40 54 40 103c0 47 0 100 -40 100h-714c-38 -7 -39 -53 -39 -100c0 -49 -1 -103 39 -103h241v-842c-82 41 -155 96 -245 129c-52 4 -37 -80 -37 -134c0 -32 14 -47 35 -60l290 -186c50 -11 148 -10 199 0c14 3 19 9 20 24v1069h211z" />
    <glyph glyph-name="two" unicode="2" 
d="M911 -213c43 6 45 56 45 106s2 107 -41 107h-744c-106 15 -93 -132 -69 -208c10 -31 30 -50 53 -75l224 -240c93 -100 168 -184 203 -320c34 -131 -24 -237 -157 -237c-105 0 -180 42 -242 82c-73 48 -67 -39 -71 -105c-7 -122 74 -139 160 -173c63 -25 145 -42 231 -41
c242 3 401 107 401 339c0 192 -74 291 -169 412c-81 104 -231 245 -334 353h510z" />
    <glyph glyph-name="three" unicode="3" 
d="M891 -993c0 175 -89 275 -232 311v3c169 25 291 117 291 300c0 321 -290 436 -623 393c-85 -11 -164 -36 -214 -76c-29 -23 -27 -71 -28 -125c-2 -66 13 -102 67 -71c68 38 156 72 267 71c132 -2 227 -52 227 -181c0 -187 -190 -202 -392 -196c-50 1 -48 -47 -48 -99
c0 -49 -1 -94 45 -94c190 0 350 -16 354 -191c4 -142 -146 -187 -277 -144c-54 18 -104 43 -144 68c-17 11 -30 16 -38 16c-51 0 -30 -109 -27 -164c12 -37 26 -42 63 -65c78 -47 191 -81 320 -80c233 2 389 96 389 324z" />
    <glyph glyph-name="four" unicode="4" 
d="M957 -478c33 9 39 51 39 106c0 51 -5 97 -39 104h-115v234c-10 46 -70 40 -128 40c-56 0 -125 7 -125 -40v-234h-495c-76 3 -56 -103 -56 -174c0 -48 13 -80 31 -114l402 -709c44 -50 180 -33 272 -33c47 0 89 5 99 41v779h115zM589 -1073h-2l-341 595h343v-595z" />
    <glyph glyph-name="five" unicode="5" 
d="M507 -798c268 3 437 113 437 378c0 337 -267 476 -621 436c-78 -9 -156 -28 -203 -62c-27 -20 -23 -65 -24 -114c-2 -57 5 -125 64 -90c62 37 144 64 250 63c154 -1 255 -60 255 -213c0 -154 -108 -201 -269 -201c-70 0 -131 12 -195 12c-43 -1 -54 -20 -54 -68v-562
c0 -51 17 -74 65 -75h613c42 7 41 60 41 111c0 60 -2 105 -41 114h-460v277c47 -5 90 -6 142 -6z" />
    <glyph glyph-name="six" unicode="6" 
d="M607 -815c250 0 369 136 369 383c0 217 -102 356 -261 420c-57 23 -122 35 -196 35c-357 4 -435 -263 -435 -619c0 -441 163 -759 630 -716c59 5 123 18 158 44c22 16 23 49 23 89c0 48 7 100 -35 105c-70 -14 -132 -43 -225 -41c-217 5 -290 161 -296 375
c68 -43 156 -74 268 -75zM533 -179c131 -4 183 -97 185 -228c2 -129 -43 -209 -171 -208c-86 1 -149 32 -203 67c2 161 10 297 106 352c23 13 52 17 83 17z" />
    <glyph glyph-name="seven" unicode="7" 
d="M892 -1294c90 -6 64 126 56 202c-3 27 -14 46 -24 70l-426 987c-24 61 -158 39 -235 37c-43 -1 -73 -16 -54 -58l458 -1010h-544c-40 -7 -42 -56 -42 -115c0 -51 -1 -113 42 -113h769z" />
    <glyph glyph-name="eight" unicode="8" 
d="M718 -683c128 73 258 149 258 336c0 269 -194 370 -471 370c-258 0 -444 -84 -444 -335c0 -191 127 -268 258 -341c-114 -66 -221 -143 -221 -316c0 -247 179 -348 436 -348c242 0 405 87 405 318c0 165 -109 249 -221 316zM534 -774c79 -49 152 -97 152 -201
s-63 -142 -169 -150c-155 -12 -212 157 -123 255c37 39 85 66 140 96zM521 -171c145 0 232 -96 183 -225c-31 -82 -117 -119 -199 -161c-89 53 -185 97 -185 226c0 113 79 160 201 160z" />
    <glyph glyph-name="nine" unicode="9" 
d="M520 -1317c353 -4 439 260 439 611c0 451 -173 775 -651 723c-66 -7 -135 -22 -173 -55c-19 -17 -21 -45 -21 -86c0 -48 -8 -98 34 -102c76 14 149 48 248 46c220 -4 299 -157 308 -370c-64 39 -152 72 -260 72c-261 0 -382 -136 -378 -394c4 -285 164 -442 454 -445z
M497 -678c82 0 152 -28 201 -64c-2 -163 -12 -299 -108 -355c-23 -14 -52 -18 -84 -18c-130 2 -180 93 -182 224s42 213 173 213z" />
    <glyph glyph-name="percent" unicode="%" horiz-adv-x="1493" 
d="M1140 -664c213 -2 296 127 296 335c0 214 -91 344 -304 346c-214 1 -296 -126 -295 -338c2 -210 91 -341 303 -343zM1138 -124c97 0 100 -97 100 -198c0 -104 -5 -202 -103 -202c-94 0 -100 96 -100 197c0 106 4 203 103 203zM360 -1311c213 -2 296 127 296 335
c0 214 -91 344 -304 346c-214 1 -296 -126 -295 -338c2 -210 91 -341 303 -343zM358 -771c97 0 100 -97 100 -198c0 -104 -5 -202 -103 -202c-94 0 -100 96 -100 197c0 106 4 203 103 203zM383 -7c-24 46 -112 45 -177 37c-34 -4 -43 -29 -23 -56l922 -1263
c24 -45 112 -45 177 -37c34 4 42 30 23 56z" />
    <glyph glyph-name="plus" unicode="+" horiz-adv-x="1020" 
d="M928 -674c39 6 40 53 40 99c0 48 -2 99 -43 99h-311v339c-6 43 -55 42 -104 42c-50 0 -105 0 -105 -42v-339h-310c-40 -6 -43 -51 -43 -99c0 -46 0 -99 40 -99h313v-338c6 -44 54 -44 105 -44c50 0 104 0 104 44v338h314z" />
    <glyph glyph-name="equal" unicode="=" horiz-adv-x="1020" 
d="M890 -874c41 4 44 41 44 95c0 55 -5 97 -44 97h-763c-39 -5 -44 -43 -44 -97s3 -95 44 -95h763zM890 -471c41 4 44 43 44 96c0 56 -4 96 -44 96h-763c-39 -5 -44 -41 -44 -96c0 -54 3 -96 44 -96h763z" />
    <glyph glyph-name="less" unicode="&#x3c;" horiz-adv-x="1020" 
d="M867 -315c65 16 48 127 45 199c-1 34 -20 45 -50 30l-767 -382c-39 -29 -32 -158 -11 -208c4 -5 7 -8 12 -11l766 -380c54 -19 53 26 53 85c0 64 7 114 -37 135l-576 270z" />
    <glyph glyph-name="greater" unicode="&#x3e;" horiz-adv-x="1020" 
d="M104 -912c0 -57 -24 -192 50 -155l768 383c39 27 36 159 12 206c-3 6 -8 9 -13 11l-767 380c-49 23 -54 -32 -52 -84c2 -64 -7 -115 37 -135l576 -270l-565 -262c-33 -12 -46 -30 -46 -74z" />
    </font>
</defs>
</svg>
